<svg width="170" height="63" viewBox="0 0 170 63" fill="none" xmlns="http://www.w3.org/2000/svg">
<g clip-path="url(#clip0_465_97)">
<path d="M164.924 1.64636H5.08091C3.02253 1.64636 1.35388 3.31501 1.35388 5.37338V56.9839C1.35388 59.0422 3.02253 60.7108 5.08091 60.7108H164.924C166.983 60.7108 168.651 59.0422 168.651 56.9839V5.37338C168.651 3.31501 166.983 1.64636 164.924 1.64636Z" fill="black" stroke="#B4B6D0" stroke-width="1.17662"/>
<path fill-rule="evenodd" clip-rule="evenodd" d="M67.0405 44.0913H69.6391L63.9505 28.3352H61.319L55.6301 44.0913H58.1414L59.5937 39.9094H65.5991L67.0405 44.0913ZM62.5092 31.1962H62.6947L64.9768 37.8568H60.2161L62.5092 31.1962ZM76.5298 32.004C74.9137 32.004 73.5161 32.812 72.7954 34.166H72.6207V32.2006H70.3603V47.9458H72.708V42.2898H72.8936C73.5161 43.5454 74.859 44.2879 76.5516 44.2879C79.5543 44.2879 81.465 41.9184 81.465 38.1404C81.465 34.3624 79.5543 32.004 76.5298 32.004ZM75.8637 42.1804C73.8982 42.1804 72.6642 40.6298 72.6642 38.1512C72.6642 35.6617 73.8982 34.1111 75.8745 34.1111C77.8618 34.1111 79.052 35.629 79.052 38.1403C79.052 40.6626 77.8618 42.1804 75.8637 42.1804ZM88.7051 32.004C87.0892 32.004 85.6915 32.812 84.9707 34.166H84.796V32.2006H82.5358V47.9458H84.8833V42.2898H85.069C85.6915 43.5454 87.0344 44.2879 88.727 44.2879C91.7296 44.2879 93.6405 41.9184 93.6405 38.1404C93.6405 34.3624 91.7296 32.004 88.7051 32.004ZM88.0391 42.1804C86.0737 42.1804 84.8397 40.6298 84.8397 38.1512C84.8397 35.6617 86.0737 34.1111 88.0499 34.1111C90.0371 34.1111 91.2275 35.629 91.2275 38.1403C91.2275 40.6626 90.0373 42.1804 88.0391 42.1804ZM98.6101 39.8549C98.7848 42.6719 101.132 44.4736 104.626 44.4736C108.361 44.4736 110.697 42.5846 110.697 39.5709C110.697 37.2015 109.365 35.8913 106.133 35.1379L104.397 34.712C102.344 34.2316 101.514 33.5874 101.514 32.4627C101.514 31.0432 102.803 30.1151 104.736 30.1151C106.57 30.1151 107.837 31.0215 108.066 32.4735H110.446C110.304 29.8203 107.968 27.9531 104.768 27.9531C101.329 27.9531 99.0358 29.8203 99.0358 32.6264C99.0358 34.9413 100.335 36.3171 103.185 36.9831L105.216 37.4745C107.302 37.9658 108.219 38.6865 108.219 39.8877C108.219 41.2852 106.777 42.3007 104.812 42.3007C102.705 42.3007 101.242 41.3508 101.034 39.8549H98.6101ZM112.718 29.3179V32.2551H110.764V34.2316H112.718V40.9467C112.718 43.2397 113.755 44.1569 116.365 44.1569C116.824 44.1569 117.25 44.1024 117.621 44.0368V42.0823C117.293 42.1149 117.108 42.1368 116.747 42.1368C115.579 42.1368 115.066 41.5909 115.066 40.3461V34.2316H117.73V32.2551H115.066V29.3179H112.718ZM123.55 42.2354C121.509 42.2354 120.362 40.7395 120.362 38.1408C120.362 35.5638 121.509 34.0571 123.55 34.0571C125.582 34.0571 126.739 35.5638 126.739 38.1408C126.739 40.7286 125.582 42.2354 123.55 42.2354ZM123.55 44.3202C127.022 44.3202 129.152 41.9945 129.152 38.14C129.152 34.3075 127.011 31.9708 123.55 31.9708C120.078 31.9708 117.938 34.3075 117.938 38.14C117.938 41.9945 120.067 44.3202 123.55 44.3202ZM130.223 44.0913H132.571V37.0704C132.571 35.3998 133.826 34.2751 135.595 34.2751C135.988 34.2751 136.708 34.3515 136.894 34.4171V32.1022C136.642 32.0367 136.195 32.004 135.857 32.004C134.307 32.004 132.996 32.8556 132.657 34.0239H132.483V32.2006H130.223V44.0913ZM142.18 33.9698C143.917 33.9698 145.051 35.1819 145.105 37.049H139.1C139.231 35.1927 140.444 33.9698 142.18 33.9698ZM145.094 40.8808C144.659 41.809 143.687 42.322 142.267 42.322C140.389 42.322 139.176 41.0008 139.1 38.9152V38.7842H147.497V37.9653C147.497 34.231 145.499 31.9708 142.191 31.9708C138.838 31.9708 136.708 34.3839 136.708 38.1837C136.708 41.9837 138.794 44.3202 142.202 44.3202C144.92 44.3202 146.82 43.01 147.355 40.8808H145.094Z" fill="white"/>
<path fill-rule="evenodd" clip-rule="evenodd" d="M42.1238 31.1523C42.0897 27.3439 45.2422 25.491 45.3864 25.4048C43.601 22.8015 40.8335 22.4459 39.8609 22.4175C37.5366 22.1728 35.282 23.8084 34.098 23.8084C32.8902 23.8084 31.067 22.441 29.1017 22.4812C26.5731 22.5203 24.2074 23.9844 22.9099 26.2578C20.2323 30.8936 22.2291 37.7059 24.7946 41.4531C26.0779 43.2893 27.5775 45.3371 29.5402 45.2651C31.4606 45.1871 32.1778 44.0409 34.495 44.0409C36.791 44.0409 37.4645 45.2651 39.4663 45.2178C41.5271 45.1871 42.8246 43.3756 44.0631 41.5227C45.546 39.4217 46.1415 37.348 46.1651 37.2416C46.1179 37.2263 42.164 35.7171 42.1238 31.1523Z" fill="white"/>
<path fill-rule="evenodd" clip-rule="evenodd" d="M38.3425 19.9526C39.3753 18.661 40.0819 16.9039 39.8858 15.1207C38.3909 15.187 36.5214 16.1547 35.4451 17.4179C34.4926 18.5311 33.6419 20.3555 33.8616 22.0713C35.5408 22.1965 37.2648 21.2241 38.3425 19.9526Z" fill="white"/>
<path d="M59.2534 23.0184C60.8268 23.0184 61.9155 22.1556 62.1232 20.73H60.9559C60.7713 21.5328 60.1393 22.008 59.258 22.008C58.1045 22.008 57.3756 21.0714 57.3756 19.5765C57.3756 18.0909 58.1092 17.1498 59.2534 17.1498C60.1162 17.1498 60.7944 17.6987 60.9513 18.5339H62.1232C61.9754 17.1036 60.799 16.1393 59.2534 16.1393C57.3618 16.1393 56.1577 17.4541 56.1577 19.5765C56.1577 21.7127 57.3525 23.0184 59.2534 23.0184ZM66.4342 16.1393C64.4918 16.1393 63.2738 17.4635 63.2738 19.5812C63.2738 21.6988 64.4918 23.0184 66.4342 23.0184C68.3721 23.0184 69.5899 21.6988 69.5899 19.5812C69.5899 17.4635 68.3721 16.1393 66.4342 16.1393ZM66.4342 17.1544C67.6201 17.1544 68.3767 18.0955 68.3767 19.5812C68.3767 21.0623 67.6201 22.0034 66.4342 22.0034C65.2438 22.0034 64.4918 21.0623 64.4918 19.5812C64.4918 18.0955 65.2438 17.1544 66.4342 17.1544ZM77.8828 22.9076V16.25H76.5079L74.4685 21.3298H74.4317L72.3923 16.25H71.0129V22.9076H72.0878V18.1832H72.1202L74.0442 22.9076H74.8561L76.78 18.1832H76.8124V22.9076H77.8828ZM80.722 22.9076V16.25H79.5317V22.9076H80.722ZM83.5151 22.9076V18.2385H83.5567L86.8647 22.9076H87.889V16.25H86.7447V20.9145H86.7031L83.3998 16.25H82.3663V22.9076H83.5151ZM95.3651 20.1303V19.4197H92.5968V20.3286H94.2024L94.1978 20.4392C94.1793 21.3712 93.4826 22.008 92.4768 22.008C91.2772 22.008 90.5299 21.0714 90.5299 19.5396C90.5299 18.0401 91.2451 17.1498 92.4445 17.1498C93.2611 17.1498 93.8794 17.6019 94.1054 18.3678H95.3142C95.0974 17.0344 93.9532 16.1393 92.4399 16.1393C90.516 16.1393 89.3118 17.4404 89.3118 19.5534C89.3118 21.6988 90.5206 23.0184 92.4629 23.0184C94.2854 23.0184 95.3651 21.9341 95.3651 20.1303ZM98.8982 21.0484C98.9535 22.2664 99.9732 23.0184 101.514 23.0184C103.115 23.0184 104.116 22.2156 104.116 20.9422C104.116 19.9549 103.53 19.392 102.128 19.1013L101.408 18.9537C100.578 18.7783 100.245 18.4877 100.245 18.0356C100.245 17.4772 100.771 17.1267 101.51 17.1267C102.271 17.1267 102.797 17.505 102.852 18.1325H103.992C103.964 16.9421 102.991 16.1393 101.519 16.1393C100.075 16.1393 99.0459 16.933 99.0459 18.1047C99.0459 19.0782 99.6687 19.7057 101.002 19.978L101.717 20.1256C102.585 20.3055 102.917 20.6009 102.917 21.0806C102.917 21.6343 102.359 22.0311 101.556 22.0311C100.725 22.0311 100.125 21.6619 100.038 21.0484H98.8982ZM108.414 16.1393C106.471 16.1393 105.253 17.4635 105.253 19.5812C105.253 21.6988 106.471 23.0184 108.414 23.0184C110.351 23.0184 111.569 21.6988 111.569 19.5812C111.569 17.4635 110.351 16.1393 108.414 16.1393ZM108.414 17.1544C109.599 17.1544 110.356 18.0955 110.356 19.5812C110.356 21.0623 109.599 22.0034 108.414 22.0034C107.223 22.0034 106.471 21.0623 106.471 19.5812C106.471 18.0955 107.223 17.1544 108.414 17.1544ZM115.927 16.1393C113.984 16.1393 112.766 17.4635 112.766 19.5812C112.766 21.6988 113.984 23.0184 115.927 23.0184C117.864 23.0184 119.082 21.6988 119.082 19.5812C119.082 17.4635 117.864 16.1393 115.927 16.1393ZM115.927 17.1544C117.112 17.1544 117.869 18.0955 117.869 19.5812C117.869 21.0623 117.112 22.0034 115.927 22.0034C114.736 22.0034 113.984 21.0623 113.984 19.5812C113.984 18.0955 114.736 17.1544 115.927 17.1544ZM121.654 22.9076V18.2385H121.696L125.004 22.9076H126.028V16.25H124.884V20.9145H124.842L121.539 16.25H120.505V22.9076H121.654ZM132.855 22.9076V17.256H134.844V16.25H129.676V17.256H131.669V22.9076H132.855ZM138.681 16.1393C136.738 16.1393 135.52 17.4635 135.52 19.5812C135.52 21.6988 136.738 23.0184 138.681 23.0184C140.618 23.0184 141.835 21.6988 141.835 19.5812C141.835 17.4635 140.618 16.1393 138.681 16.1393ZM138.681 17.1544C139.865 17.1544 140.622 18.0955 140.622 19.5812C140.622 21.0623 139.865 22.0034 138.681 22.0034C137.489 22.0034 136.738 21.0623 136.738 19.5812C136.738 18.0955 137.489 17.1544 138.681 17.1544Z" fill="white"/>
</g>
<defs>
<clipPath id="clip0_465_97">
<rect width="169.99" height="62.06" fill="white" transform="translate(0.00476074)"/>
</clipPath>
</defs>
</svg>
