<svg width="12" height="11" viewBox="0 0 12 11" fill="none" xmlns="http://www.w3.org/2000/svg">
<path d="M4.3291 3.70425L4.65199 4.90852C4.95607 6.04297 5.1078 6.61052 5.55483 6.86844C6.00186 7.127 6.56927 6.97445 7.70409 6.67063L8.90788 6.34743C10.0427 6.04361 10.6101 5.89171 10.8684 5.44504C11.1267 4.99772 10.975 4.43017 10.6703 3.29572L10.348 2.0921C10.044 0.957003 9.8916 0.389454 9.4452 0.131536C8.99754 -0.127029 8.43013 0.0255243 7.29531 0.329984L6.09152 0.651897C4.9567 0.95571 4.38929 1.10826 4.13161 1.55558C3.87329 2.00225 4.02502 2.5698 4.3291 3.70425Z" fill="white"/>
<path d="M0.017635 1.33709C0.0347244 1.27883 0.0637888 1.22432 0.103166 1.17669C0.142544 1.12906 0.191463 1.08924 0.247125 1.0595C0.302788 1.02976 0.364103 1.01069 0.427564 1.00338C0.491025 0.996065 0.555389 1.00065 0.616974 1.01688L1.7216 1.30641C2.01435 1.38161 2.28152 1.52725 2.49704 1.72914C2.71257 1.93103 2.86911 2.18229 2.95141 2.45842L4.34663 7.23452L4.44911 7.57006C4.86278 7.71425 5.21137 7.98869 5.43633 8.34727L5.63741 8.28838L11.3908 6.87444C11.4526 6.85922 11.5171 6.85566 11.5803 6.86398C11.6436 6.87229 11.7046 6.89231 11.7597 6.9229C11.8148 6.95349 11.863 6.99404 11.9015 7.04225C11.9401 7.09045 11.9682 7.14537 11.9843 7.20385C12.0004 7.26233 12.0042 7.32324 11.9954 7.3831C11.9866 7.44296 11.9654 7.50059 11.9331 7.55271C11.9007 7.60483 11.8578 7.65042 11.8069 7.68686C11.7559 7.72331 11.6978 7.74991 11.636 7.76513L5.904 9.17355L5.68995 9.23612C5.68606 10.0152 5.1172 10.728 4.25647 10.939C3.22514 11.1929 2.16462 10.631 1.8883 9.68514C1.61198 8.73863 2.22429 7.76574 3.25562 7.5124C3.30644 7.50002 3.35772 7.48938 3.40935 7.4805L2.01349 2.70318C1.97591 2.58044 1.90539 2.46899 1.80877 2.37966C1.71216 2.29033 1.59274 2.22618 1.46215 2.19342L0.356871 1.90327C0.295279 1.88717 0.237645 1.85976 0.18726 1.82259C0.136875 1.78541 0.0947275 1.73922 0.0632247 1.68664C0.0317219 1.63406 0.0114811 1.57613 0.00365869 1.51615C-0.00416371 1.45618 0.000585524 1.39533 0.017635 1.33709Z" fill="white"/>
</svg>
