<svg width="14" height="14" viewBox="0 0 14 14" fill="none" xmlns="http://www.w3.org/2000/svg">
<path d="M11.0833 9.91666V11.0833H4.08333V9.91666C4.08333 9.91666 4.08333 7.58332 7.58333 7.58332C11.0833 7.58332 11.0833 9.91666 11.0833 9.91666ZM9.33333 4.66666C9.33333 4.32054 9.2307 3.9822 9.0384 3.69441C8.84611 3.40662 8.5728 3.18232 8.25303 3.04987C7.93326 2.91741 7.58139 2.88276 7.24193 2.95028C6.90246 3.01781 6.59064 3.18448 6.3459 3.42922C6.10115 3.67396 5.93448 3.98578 5.86696 4.32525C5.79943 4.66472 5.83409 5.01658 5.96654 5.33635C6.099 5.65612 6.3233 5.92944 6.61108 6.12173C6.89887 6.31402 7.23722 6.41666 7.58333 6.41666C8.04746 6.41666 8.49258 6.23228 8.82077 5.90409C9.14896 5.57591 9.33333 5.13079 9.33333 4.66666ZM11.2 7.61832C11.5189 7.9125 11.7759 8.26725 11.9562 8.66186C12.1365 9.05646 12.2364 9.48303 12.25 9.91666V11.0833H14V9.91666C14 9.91666 14 7.90416 11.2 7.61832ZM10.5 2.91666C10.3238 2.91676 10.1486 2.94431 9.98083 2.99832C10.3221 3.48772 10.5051 4.07001 10.5051 4.66666C10.5051 5.2633 10.3221 5.84559 9.98083 6.33499C10.1486 6.389 10.3238 6.41655 10.5 6.41666C10.9641 6.41666 11.4092 6.23228 11.7374 5.90409C12.0656 5.57591 12.25 5.13079 12.25 4.66666C12.25 4.20253 12.0656 3.75741 11.7374 3.42922C11.4092 3.10103 10.9641 2.91666 10.5 2.91666ZM4.66667 5.83332H2.91667V4.08332H1.75V5.83332H0V6.99999H1.75V8.74999H2.91667V6.99999H4.66667V5.83332Z" fill="white"/>
</svg>
