<svg width="13" height="13" viewBox="0 0 13 13" fill="none" xmlns="http://www.w3.org/2000/svg">
<g clip-path="url(#clip0_465_294)">
<path d="M12.3175 8.84361L10.9019 6.45306L12.3031 4.16C12.3363 4.10536 12.3545 4.04286 12.3557 3.9789C12.3568 3.91494 12.341 3.85181 12.3098 3.79597C12.2786 3.74014 12.2331 3.6936 12.178 3.66112C12.1228 3.62864 12.0601 3.61138 11.9961 3.61111H0.722222C0.530677 3.61111 0.346977 3.68721 0.211534 3.82265C0.0760911 3.95809 0 4.14179 0 4.33334L0 8.66667C0 8.85822 0.0760911 9.04191 0.211534 9.17736C0.346977 9.3128 0.530677 9.38889 0.722222 9.38889H12.0069C12.0707 9.38888 12.1333 9.372 12.1884 9.33996C12.2435 9.30793 12.2891 9.26188 12.3207 9.20649C12.3522 9.15111 12.3685 9.08836 12.368 9.02463C12.3674 8.96089 12.35 8.89844 12.3175 8.84361ZM3.79528 7.64834H3.39083L2.21361 6.08111V7.65195H1.80556V5.41667H2.21361L3.39444 6.9875V5.41667H3.79889L3.79528 7.64834ZM6.08111 5.77778H4.80639V6.31584H5.96194V6.67695H4.80639V7.25834H6.08111V7.61945H4.39833V5.41667H6.0775L6.08111 5.77778ZM9.07472 7.64111H8.66667L8.10695 5.98361L7.54722 7.64834H7.14278L6.42056 5.41667H6.86111L7.33778 7.01639L7.88667 5.41667H8.32722L8.85444 7.01639L9.33472 5.41667H9.77889L9.07472 7.64111Z" fill="white"/>
</g>
<defs>
<clipPath id="clip0_465_294">
<rect width="13" height="13" fill="white"/>
</clipPath>
</defs>
</svg>
