<svg width="10" height="10" viewBox="0 0 10 10" fill="none" xmlns="http://www.w3.org/2000/svg">
<path d="M4.99992 0.833344C7.30117 0.833344 9.16658 2.69876 9.16658 5.00001C9.16658 7.30126 7.30117 9.16668 4.99992 9.16668C2.69867 9.16668 0.833252 7.30126 0.833252 5.00001C0.833252 2.69876 2.69867 0.833344 4.99992 0.833344ZM4.99992 2.50001C4.88941 2.50001 4.78343 2.54391 4.70529 2.62205C4.62715 2.70019 4.58325 2.80617 4.58325 2.91668V5.00001C4.58328 5.11051 4.62719 5.21647 4.70534 5.29459L5.95534 6.54459C6.03392 6.62049 6.13917 6.66249 6.24842 6.66154C6.35767 6.66059 6.46217 6.61677 6.53943 6.53952C6.61668 6.46226 6.6605 6.35776 6.66145 6.24851C6.6624 6.13926 6.6204 6.03401 6.5445 5.95543L5.41658 4.82751V2.91668C5.41658 2.80617 5.37269 2.70019 5.29455 2.62205C5.21641 2.54391 5.11043 2.50001 4.99992 2.50001Z" fill="white"/>
</svg>
