<svg width="170" height="63" viewBox="0 0 170 63" fill="none" xmlns="http://www.w3.org/2000/svg">
<g clip-path="url(#clip0_465_73)">
<path d="M163.997 1.34912H6.03299C3.44878 1.34912 1.35388 3.44402 1.35388 6.02823V55.7596C1.35388 58.3437 3.44878 60.4386 6.03299 60.4386H163.997C166.582 60.4386 168.677 58.3437 168.677 55.7596V6.02823C168.677 3.44402 166.582 1.34912 163.997 1.34912Z" fill="black" stroke="#B4B6D0" stroke-width="1.14892"/>
<path fill-rule="evenodd" clip-rule="evenodd" d="M125.9 29.803H120.005V38.7514H125.9C125.9 38.7514 129.294 38.1741 129.294 34.2771C129.294 30.3803 125.9 29.803 125.9 29.803ZM125.151 31.9675H121.148V36.7695H125.151C125.151 36.7695 126.971 36.7695 126.971 34.3686C126.971 31.9675 125.151 31.9675 125.151 31.9675Z" fill="white"/>
<path d="M121.565 29.8029H119.485V44.36H121.565V29.8029Z" fill="white"/>
<path d="M132.585 29.8029H130.505V44.36H132.585V29.8029Z" fill="white"/>
<path fill-rule="evenodd" clip-rule="evenodd" d="M138.142 34.6898C135.232 34.6898 134.264 36.6882 134.264 36.6882L135.996 37.7119C135.996 37.7119 136.414 36.6882 138.308 36.6882C139.686 36.6882 140.146 37.729 140.294 38.2954V38.7233C139.69 38.4297 138.382 37.9673 136.515 38.2448C133.985 38.6212 134.035 40.9105 134.043 41.2718C134.043 41.2868 134.043 41.2984 134.043 41.3065C134.043 41.5105 134.046 44.534 137.358 44.3272C138.805 44.2368 139.721 43.7919 140.294 43.3193V44.3554H142.373V38.0366L142.374 38.0243C142.374 37.1844 141.758 34.6898 138.142 34.6898ZM136 41.3717C136.139 39.121 140.144 40.2009 140.144 40.2009C140.144 40.2009 140.2 40.4389 140.2 40.9461C139.843 42.5416 135.859 43.6224 136 41.3717Z" fill="white"/>
<path fill-rule="evenodd" clip-rule="evenodd" d="M147.315 41.3379L144.646 35.0016H142.567L146.275 43.8075L144.335 48.415H146.415L152.041 35.0519H149.962L147.315 41.3379Z" fill="white"/>
<path fill-rule="evenodd" clip-rule="evenodd" d="M110.43 34.6898C113.917 34.6898 114.828 38.4045 114.828 38.4045L108.251 41.1227C108.251 41.1227 108.676 42.6263 110.653 42.6363C112.202 42.6443 113.076 41.2639 113.076 41.2639L114.745 42.3939C114.745 42.3939 113.398 44.5717 110.64 44.5717C107.251 44.5717 105.759 41.6083 105.759 39.6838C105.759 37.8297 106.943 34.6898 110.43 34.6898ZM110.229 36.6081C111.498 36.376 112.326 37.635 112.326 37.635L107.883 39.4485C107.883 39.4485 107.545 37.0992 110.229 36.6081Z" fill="white"/>
<path d="M104.84 29.8029H102.639V44.3295H104.84V29.8029Z" fill="white"/>
<path fill-rule="evenodd" clip-rule="evenodd" d="M99.1191 35.9121V35.0054L101.153 35.023V44.189C101.153 46.5307 99.7586 49.0028 96.4761 49.0028C93.1937 49.0028 92.1335 46.0945 92.1335 46.0945L94.0014 45.3089C94.0014 45.3089 94.5712 47.1013 96.5733 47.1013C98.8532 47.1013 99.1193 45.0271 99.1193 44.317V43.3223C99.1193 43.3223 98.3305 44.557 96.371 44.557C94.2464 44.557 91.7219 42.7368 91.7219 39.6338C91.7219 36.5308 94.0992 34.7559 96.3956 34.6912C98.235 34.6396 99.1191 35.9121 99.1191 35.9121ZM99.2298 39.6599C99.2298 41.3358 98.0276 42.6944 96.5445 42.6944C95.0614 42.6944 93.8591 41.3358 93.8591 39.6599C93.8591 37.9841 95.0614 36.6256 96.5445 36.6256C98.0276 36.6256 99.2298 37.9841 99.2298 39.6599Z" fill="white"/>
<path fill-rule="evenodd" clip-rule="evenodd" d="M90.8076 39.6289C90.8076 42.3567 88.5912 44.5679 85.8573 44.5679C83.1233 44.5679 80.9071 42.3567 80.9071 39.6289C80.9071 36.9012 83.1233 34.6898 85.8573 34.6898C88.5912 34.6898 90.8076 36.9012 90.8076 39.6289ZM88.6073 39.6291C88.6073 41.2871 87.3615 42.6313 85.8248 42.6313C84.2882 42.6313 83.0424 41.2871 83.0424 39.6291C83.0424 37.971 84.2882 36.6269 85.8248 36.6269C87.3615 36.6269 88.6073 37.971 88.6073 39.6291Z" fill="white"/>
<path fill-rule="evenodd" clip-rule="evenodd" d="M80.0975 39.6289C80.0975 42.3567 77.8811 44.5679 75.1472 44.5679C72.4132 44.5679 70.197 42.3567 70.197 39.6289C70.197 36.9012 72.4132 34.6898 75.1472 34.6898C77.8811 34.6898 80.0975 36.9012 80.0975 39.6289ZM77.8973 39.6291C77.8973 41.2871 76.6517 42.6313 75.1149 42.6313C73.5781 42.6313 72.3323 41.2871 72.3323 39.6291C72.3323 37.971 73.5781 36.6269 75.1149 36.6269C76.6517 36.6269 77.8973 37.971 77.8973 39.6291Z" fill="white"/>
<path fill-rule="evenodd" clip-rule="evenodd" d="M62.3652 36.2555H68.9008L68.8361 38.3216H62.3652V36.2555Z" fill="white"/>
<path fill-rule="evenodd" clip-rule="evenodd" d="M62.269 44.5838C66.5746 44.6225 70.1657 41.593 69.4477 36.3319C69.4477 36.3064 69.4476 36.2809 69.4473 36.2554H67.5384C67.5539 36.4751 67.5593 36.7011 67.5542 36.9331C67.5587 40.6907 65.3894 42.4532 62.3338 42.4532C59.2782 42.4532 56.8011 39.9817 56.8011 36.9331C56.8011 33.8845 59.2782 31.413 62.3338 31.413C63.8626 31.413 65.1874 31.9346 66.1201 32.8864L67.6156 31.3943C66.3436 30.054 64.4826 29.2825 62.269 29.2825C58.0341 29.2825 54.6011 32.7078 54.6011 36.9331C54.6011 41.1585 58.0341 44.5778 62.269 44.5838Z" fill="white"/>
<path fill-rule="evenodd" clip-rule="evenodd" d="M42.0764 28.3957C44.2843 29.6515 44.2844 32.8336 42.0766 34.0893L23.9534 44.3975C21.7703 45.6392 19.0592 44.0624 19.0592 41.5507V20.9348C19.0592 18.423 21.7703 16.8462 23.9534 18.088L42.0764 28.3957Z" fill="url(#paint0_linear_465_73)"/>
<mask id="mask0_465_73" style="mask-type:alpha" maskUnits="userSpaceOnUse" x="19" y="17" width="25" height="28">
<path fill-rule="evenodd" clip-rule="evenodd" d="M42.0764 28.3957C44.2843 29.6515 44.2844 32.8336 42.0766 34.0893L23.9534 44.3975C21.7703 45.6392 19.0592 44.0624 19.0592 41.5507V20.9348C19.0592 18.423 21.7703 16.8462 23.9534 18.088L42.0764 28.3957Z" fill="white"/>
</mask>
<g mask="url(#mask0_465_73)">
<path fill-rule="evenodd" clip-rule="evenodd" d="M19.0386 16.5605L33.5737 31.007L18.851 46.0245L19.0386 16.5605Z" fill="url(#paint1_linear_465_73)"/>
<path fill-rule="evenodd" clip-rule="evenodd" d="M16.0513 13.5859L33.5735 31.0108L38.7832 26.041L16.0513 13.5859Z" fill="url(#paint2_linear_465_73)"/>
<path fill-rule="evenodd" clip-rule="evenodd" d="M33.5753 31.0071L41.5507 39.0459L17.7252 47.0847L33.5753 31.0071Z" fill="url(#paint3_linear_465_73)"/>
</g>
<path d="M57.5467 23.5921C59.12 23.5921 60.2089 22.7293 60.4164 21.3037H59.2491C59.0647 22.1066 58.4325 22.5817 57.5514 22.5817C56.3979 22.5817 55.6689 21.645 55.6689 20.1502C55.6689 18.6647 56.4025 17.7235 57.5467 17.7235C58.4094 17.7235 59.0878 18.2725 59.2445 19.1076H60.4164C60.2688 17.6774 59.0924 16.713 57.5467 16.713C55.6552 16.713 54.4508 18.028 54.4508 20.1502C54.4508 22.2865 55.6459 23.5921 57.5467 23.5921ZM64.7275 16.713C62.7851 16.713 61.5671 18.0372 61.5671 20.1549C61.5671 22.2725 62.7851 23.5921 64.7275 23.5921C66.6652 23.5921 67.8833 22.2725 67.8833 20.1549C67.8833 18.0372 66.6652 16.713 64.7275 16.713ZM64.7275 17.728C65.9132 17.728 66.6699 18.6693 66.6699 20.1549C66.6699 21.636 65.9132 22.5771 64.7275 22.5771C63.5372 22.5771 62.7852 21.636 62.7852 20.1549C62.7852 18.6693 63.5372 17.728 64.7275 17.728ZM76.176 23.4813V16.8238H74.8011L72.7619 21.9035H72.7249L70.6857 16.8238H69.3061V23.4813H70.3812V18.7569H70.4135L72.3373 23.4813H73.1493L75.0733 18.7569H75.1056V23.4813H76.176ZM79.0154 23.4813V16.8238H77.825V23.4813H79.0154ZM81.8085 23.4813V18.8123H81.85L85.158 23.4813H86.1822V16.8238H85.038V21.4883H84.9965L81.6931 16.8238H80.6596V23.4813H81.8085ZM93.6583 20.704V19.9934H90.8901V20.9023H92.4956L92.491 21.0131C92.4727 21.9449 91.776 22.5817 90.7701 22.5817C89.5706 22.5817 88.823 21.645 88.823 20.1134C88.823 18.6138 89.5382 17.7235 90.7378 17.7235C91.5545 17.7235 92.1726 18.1756 92.3987 18.9415H93.6076C93.3906 17.6082 92.2464 16.713 90.7332 16.713C88.8092 16.713 87.6051 18.0141 87.6051 20.1271C87.6051 22.2725 88.814 23.5921 90.7563 23.5921C92.5787 23.5921 93.6583 22.5078 93.6583 20.704ZM97.1915 21.622C97.2468 22.8401 98.2665 23.5921 99.8075 23.5921C101.409 23.5921 102.41 22.7892 102.41 21.5159C102.41 20.5286 101.824 19.9658 100.421 19.675L99.7015 19.5274C98.8709 19.352 98.5386 19.0614 98.5386 18.6094C98.5386 18.0511 99.0647 17.7004 99.8029 17.7004C100.564 17.7004 101.09 18.0787 101.145 18.7062H102.285C102.257 17.5159 101.284 16.713 99.8119 16.713C98.368 16.713 97.3391 17.5067 97.3391 18.6786C97.3391 19.652 97.962 20.2794 99.2952 20.5517L100.01 20.6993C100.878 20.8793 101.21 21.1746 101.21 21.6543C101.21 22.208 100.652 22.6048 99.849 22.6048C99.0185 22.6048 98.4187 22.2357 98.331 21.622H97.1915ZM106.707 16.713C104.764 16.713 103.546 18.0372 103.546 20.1549C103.546 22.2725 104.764 23.5921 106.707 23.5921C108.645 23.5921 109.863 22.2725 109.863 20.1549C109.863 18.0372 108.645 16.713 106.707 16.713ZM106.707 17.728C107.893 17.728 108.649 18.6693 108.649 20.1549C108.649 21.636 107.893 22.5771 106.707 22.5771C105.516 22.5771 104.764 21.636 104.764 20.1549C104.764 18.6693 105.516 17.728 106.707 17.728ZM114.22 16.713C112.277 16.713 111.059 18.0372 111.059 20.1549C111.059 22.2725 112.277 23.5921 114.22 23.5921C116.158 23.5921 117.375 22.2725 117.375 20.1549C117.375 18.0372 116.158 16.713 114.22 16.713ZM114.22 17.728C115.406 17.728 116.162 18.6693 116.162 20.1549C116.162 21.636 115.406 22.5771 114.22 22.5771C113.029 22.5771 112.277 21.636 112.277 20.1549C112.277 18.6693 113.029 17.728 114.22 17.728ZM119.947 23.4813V18.8123H119.989L123.297 23.4813H124.321V16.8238H123.177V21.4883H123.136L119.832 16.8238H118.799V23.4813H119.947ZM131.149 23.4813V17.8296H133.137V16.8238H127.97V17.8296H129.962V23.4813H131.149ZM136.973 16.713C135.031 16.713 133.812 18.0372 133.812 20.1549C133.812 22.2725 135.031 23.5921 136.973 23.5921C138.911 23.5921 140.128 22.2725 140.128 20.1549C140.128 18.0372 138.911 16.713 136.973 16.713ZM136.973 17.728C138.158 17.728 138.915 18.6693 138.915 20.1549C138.915 21.636 138.158 22.5771 136.973 22.5771C135.783 22.5771 135.031 21.636 135.031 20.1549C135.031 18.6693 135.783 17.728 136.973 17.728Z" fill="white"/>
</g>
<defs>
<linearGradient id="paint0_linear_465_73" x1="45.41" y1="25.5241" x2="35.1562" y2="25.5241" gradientUnits="userSpaceOnUse">
<stop stop-color="#FBDA09"/>
<stop offset="1" stop-color="#FFBC00"/>
</linearGradient>
<linearGradient id="paint1_linear_465_73" x1="20.2785" y1="44" x2="31.0702" y2="42.4911" gradientUnits="userSpaceOnUse">
<stop stop-color="#01E2FF"/>
<stop offset="1" stop-color="#01C4FF"/>
</linearGradient>
<linearGradient id="paint2_linear_465_73" x1="13.4421" y1="22.6246" x2="24.1343" y2="36.569" gradientUnits="userSpaceOnUse">
<stop stop-color="#28D781"/>
<stop offset="1" stop-color="#02F076"/>
</linearGradient>
<linearGradient id="paint3_linear_465_73" x1="26.6863" y1="28.6341" x2="17.5496" y2="44.1453" gradientUnits="userSpaceOnUse">
<stop stop-color="#F2414E"/>
<stop offset="1" stop-color="#E02554"/>
</linearGradient>
<clipPath id="clip0_465_73">
<rect width="169.99" height="62.06" fill="white" transform="translate(0.00476074)"/>
</clipPath>
</defs>
</svg>
