<svg width="1592" height="648" viewBox="0 0 1592 648" fill="none" xmlns="http://www.w3.org/2000/svg">
<path d="M-4.755 416.608V441.184H34.925V455.136H-4.755V492H-19.859V402.528H39.789L39.661 416.608H-4.755ZM101.236 492H88.18V482.912C82.548 489.653 74.996 493.024 65.524 493.024C58.4413 493.024 52.5533 491.019 47.86 487.008C43.252 482.997 40.948 477.664 40.948 471.008C40.948 464.267 43.4227 459.232 48.372 455.904C53.3213 452.576 60.02 450.912 68.468 450.912H87.028V448.352C87.028 439.307 81.9933 434.784 71.924 434.784C65.6093 434.784 59.0387 437.088 52.212 441.696L45.812 432.736C54.0893 426.165 63.476 422.88 73.972 422.88C81.9933 422.88 88.5213 424.928 93.556 429.024C98.676 433.035 101.236 439.392 101.236 448.096V492ZM86.9 466.656V460.896H70.772C60.4467 460.896 55.284 464.139 55.284 470.624C55.284 473.952 56.564 476.512 59.124 478.304C61.684 480.011 65.2253 480.864 69.748 480.864C74.356 480.864 78.3667 479.584 81.78 477.024C85.1933 474.464 86.9 471.008 86.9 466.656ZM163.305 471.648C163.305 478.133 160.958 483.339 156.265 487.264C151.572 491.104 145.556 493.024 138.217 493.024C133.268 493.024 128.105 492.128 122.729 490.336C117.438 488.544 112.745 486.027 108.649 482.784L115.561 471.648C123.497 477.621 131.177 480.608 138.601 480.608C141.844 480.608 144.404 479.883 146.281 478.432C148.158 476.896 149.097 474.976 149.097 472.672C149.097 469.259 144.574 466.187 135.529 463.456C134.846 463.2 134.334 463.029 133.993 462.944C119.828 459.104 112.745 452.704 112.745 443.744C112.745 437.429 115.177 432.395 120.041 428.64C124.99 424.8 131.39 422.88 139.241 422.88C147.092 422.88 154.516 425.184 161.513 429.792L156.137 440.416C150.59 436.747 144.574 434.912 138.089 434.912C134.676 434.912 131.902 435.552 129.769 436.832C127.636 438.027 126.569 439.861 126.569 442.336C126.569 444.555 127.678 446.176 129.897 447.2C131.433 447.968 133.566 448.693 136.297 449.376C139.113 450.059 141.588 450.741 143.721 451.424C145.854 452.107 147.902 452.875 149.865 453.728C151.913 454.581 154.089 455.776 156.393 457.312C161.001 460.384 163.305 465.163 163.305 471.648ZM187.479 455.136V492H173.143V397.152H187.479V436.32C189.527 432.139 192.599 428.853 196.695 426.464C200.876 424.075 205.356 422.88 210.135 422.88C217.815 422.88 224.002 425.227 228.695 429.92C233.474 434.613 235.863 441.397 235.863 450.272V492H221.527V454.624C221.527 442.08 216.322 435.808 205.911 435.808C200.962 435.808 196.652 437.472 192.983 440.8C189.314 444.043 187.479 448.821 187.479 455.136ZM263.829 492H249.493V423.904H263.829V492ZM250.389 410.336C248.597 408.544 247.701 406.411 247.701 403.936C247.701 401.461 248.597 399.328 250.389 397.536C252.181 395.744 254.314 394.848 256.789 394.848C259.264 394.848 261.397 395.744 263.189 397.536C264.981 399.328 265.877 401.461 265.877 403.936C265.877 406.411 264.981 408.544 263.189 410.336C261.397 412.128 259.264 413.024 256.789 413.024C254.314 413.024 252.181 412.128 250.389 410.336ZM294.09 474.08C298.186 478.176 303.349 480.224 309.578 480.224C315.807 480.224 320.927 478.176 324.938 474.08C329.034 469.899 331.082 464.523 331.082 457.952C331.082 451.381 329.034 446.048 324.938 441.952C320.927 437.771 315.807 435.68 309.578 435.68C303.349 435.68 298.186 437.771 294.09 441.952C290.079 446.048 288.074 451.381 288.074 457.952C288.074 464.523 290.079 469.899 294.09 474.08ZM335.178 482.912C328.351 489.653 319.818 493.024 309.578 493.024C299.338 493.024 290.805 489.653 283.978 482.912C277.151 476.085 273.738 467.765 273.738 457.952C273.738 448.139 277.151 439.861 283.978 433.12C290.805 426.293 299.338 422.88 309.578 422.88C319.818 422.88 328.351 426.293 335.178 433.12C342.005 439.861 345.418 448.139 345.418 457.952C345.418 467.765 342.005 476.085 335.178 482.912ZM369.654 455.136V492H355.318V423.904H369.654V436.32C371.958 432.139 375.115 428.853 379.126 426.464C383.222 424.075 387.617 422.88 392.31 422.88C399.99 422.88 406.177 425.227 410.87 429.92C415.649 434.613 418.038 441.397 418.038 450.272V492H403.702V454.624C403.702 442.08 398.497 435.808 388.086 435.808C383.137 435.808 378.827 437.472 375.158 440.8C371.489 444.043 369.654 448.821 369.654 455.136ZM478.057 418.272V423.904H495.977V435.424H478.057V492H463.721V435.424H455.145V423.904H463.721V418.656C463.721 411.488 465.854 405.813 470.121 401.632C474.473 397.365 479.678 395.232 485.737 395.232C491.881 395.232 497.47 397.493 502.505 402.016L496.617 412.128C493.801 409.141 490.857 407.648 487.785 407.648C484.713 407.648 482.324 408.629 480.617 410.592C478.91 412.469 478.057 415.029 478.057 418.272ZM517.615 474.08C521.711 478.176 526.874 480.224 533.103 480.224C539.332 480.224 544.452 478.176 548.463 474.08C552.559 469.899 554.607 464.523 554.607 457.952C554.607 451.381 552.559 446.048 548.463 441.952C544.452 437.771 539.332 435.68 533.103 435.68C526.874 435.68 521.711 437.771 517.615 441.952C513.604 446.048 511.599 451.381 511.599 457.952C511.599 464.523 513.604 469.899 517.615 474.08ZM558.703 482.912C551.876 489.653 543.343 493.024 533.103 493.024C522.863 493.024 514.33 489.653 507.503 482.912C500.676 476.085 497.263 467.765 497.263 457.952C497.263 448.139 500.676 439.861 507.503 433.12C514.33 426.293 522.863 422.88 533.103 422.88C543.343 422.88 551.876 426.293 558.703 433.12C565.53 439.861 568.943 448.139 568.943 457.952C568.943 467.765 565.53 476.085 558.703 482.912ZM614.555 437.344C607.472 437.344 602.139 439.648 598.555 444.256C594.971 448.864 593.179 455.051 593.179 462.816V492H578.843V423.904H593.179V437.6C595.483 433.333 598.598 429.835 602.523 427.104C606.534 424.373 610.758 422.965 615.195 422.88L615.323 437.344C615.067 437.344 614.811 437.344 614.555 437.344ZM715.403 464.224H662.027C662.368 469.173 664.63 473.184 668.811 476.256C672.992 479.243 677.771 480.736 683.147 480.736C691.68 480.736 698.166 478.048 702.603 472.672L710.795 481.632C703.456 489.227 693.899 493.024 682.123 493.024C672.566 493.024 664.416 489.867 657.675 483.552C651.019 477.152 647.691 468.619 647.691 457.952C647.691 447.2 651.104 438.667 657.931 432.352C664.758 426.037 672.779 422.88 681.995 422.88C691.296 422.88 699.19 425.696 705.675 431.328C712.16 436.875 715.403 444.555 715.403 454.368V464.224ZM662.027 452.96H701.067C701.067 447.243 699.275 442.848 695.691 439.776C692.107 436.704 687.67 435.168 682.379 435.168C677.174 435.168 672.48 436.789 668.299 440.032C664.118 443.189 662.027 447.499 662.027 452.96ZM742.066 492L714.674 423.904H729.522L750.258 475.36L770.994 423.904H785.842L758.45 492H742.066ZM854.228 464.224H800.852C801.193 469.173 803.455 473.184 807.636 476.256C811.817 479.243 816.596 480.736 821.972 480.736C830.505 480.736 836.991 478.048 841.428 472.672L849.62 481.632C842.281 489.227 832.724 493.024 820.948 493.024C811.391 493.024 803.241 489.867 796.5 483.552C789.844 477.152 786.516 468.619 786.516 457.952C786.516 447.2 789.929 438.667 796.756 432.352C803.583 426.037 811.604 422.88 820.82 422.88C830.121 422.88 838.015 425.696 844.5 431.328C850.985 436.875 854.228 444.555 854.228 454.368V464.224ZM800.852 452.96H839.892C839.892 447.243 838.1 442.848 834.516 439.776C830.932 436.704 826.495 435.168 821.204 435.168C815.999 435.168 811.305 436.789 807.124 440.032C802.943 443.189 800.852 447.499 800.852 452.96ZM899.305 437.344C892.222 437.344 886.889 439.648 883.305 444.256C879.721 448.864 877.929 455.051 877.929 462.816V492H863.593V423.904H877.929V437.6C880.233 433.333 883.348 429.835 887.273 427.104C891.284 424.373 895.508 422.965 899.945 422.88L900.073 437.344C899.817 437.344 899.561 437.344 899.305 437.344ZM916.644 519.136C910.415 519.136 904.783 516.875 899.748 512.352L906.276 500.704C909.263 503.52 912.335 504.928 915.492 504.928C918.735 504.928 921.337 503.776 923.3 501.472C925.348 499.168 926.372 496.651 926.372 493.92C926.372 492.725 917.199 469.387 898.852 423.904H914.212L934.564 474.08L954.916 423.904H970.276L937.252 504.8C935.289 509.237 932.473 512.736 928.804 515.296C925.135 517.856 921.081 519.136 916.644 519.136ZM1040.37 422.88C1049.5 422.88 1057.31 426.037 1063.8 432.352C1070.28 438.667 1073.53 447.072 1073.53 457.568C1073.53 468.064 1070.28 476.597 1063.8 483.168C1057.4 489.739 1049.89 493.024 1041.27 493.024C1032.74 493.024 1025.06 489.269 1018.23 481.76V492H1003.89V397.024H1018.23V435.808C1023.86 427.189 1031.24 422.88 1040.37 422.88ZM1017.97 458.08C1017.97 464.565 1019.94 469.899 1023.86 474.08C1027.79 478.176 1032.57 480.224 1038.2 480.224C1043.83 480.224 1048.74 478.176 1052.92 474.08C1057.1 469.984 1059.19 464.693 1059.19 458.208C1059.19 451.637 1057.14 446.219 1053.05 441.952C1048.95 437.6 1044.04 435.424 1038.33 435.424C1032.61 435.424 1027.79 437.6 1023.86 441.952C1019.94 446.219 1017.97 451.595 1017.97 458.08ZM1131.11 460.768V423.904H1145.44V492H1131.11V479.584C1128.81 483.765 1125.61 487.051 1121.51 489.44C1117.5 491.829 1113.15 493.024 1108.45 493.024C1100.77 493.024 1094.54 490.677 1089.77 485.984C1085.07 481.291 1082.73 474.507 1082.73 465.632V423.904H1097.06V461.28C1097.06 473.824 1102.27 480.096 1112.68 480.096C1117.63 480.096 1121.94 478.475 1125.61 475.232C1129.27 471.904 1131.11 467.083 1131.11 460.768ZM1187.62 493.024C1179 493.024 1171.49 489.781 1165.09 483.296C1158.69 476.811 1155.49 468.277 1155.49 457.696C1155.49 447.115 1158.78 438.667 1165.35 432.352C1171.92 426.037 1179.73 422.88 1188.77 422.88C1197.9 422.88 1205.24 426.72 1210.79 434.4V397.024H1225.12V492H1210.79V481.76C1205.5 489.269 1197.77 493.024 1187.62 493.024ZM1169.83 458.336C1169.83 464.821 1171.92 470.112 1176.1 474.208C1180.28 478.304 1185.19 480.352 1190.82 480.352C1196.45 480.352 1201.23 478.304 1205.15 474.208C1209.08 470.027 1211.04 464.693 1211.04 458.208C1211.04 451.723 1209.08 446.304 1205.15 441.952C1201.23 437.6 1196.41 435.424 1190.69 435.424C1184.97 435.424 1180.07 437.6 1175.97 441.952C1171.87 446.304 1169.83 451.765 1169.83 458.336ZM1302.42 423.904V483.296C1302.42 495.328 1299.13 504.331 1292.56 510.304C1286.08 516.363 1277.71 519.392 1267.47 519.392C1257.23 519.392 1247.98 516.192 1239.7 509.792L1246.48 498.912C1253.14 503.947 1259.84 506.464 1266.58 506.464C1273.41 506.464 1278.78 504.715 1282.71 501.216C1286.72 497.717 1288.72 492.128 1288.72 484.448V475.744C1286.59 479.755 1283.52 482.955 1279.51 485.344C1275.58 487.733 1271.14 488.928 1266.19 488.928C1257.15 488.928 1249.73 485.771 1243.92 479.456C1238.12 473.141 1235.22 465.291 1235.22 455.904C1235.22 446.517 1238.12 438.667 1243.92 432.352C1249.73 426.037 1257.11 422.88 1266.07 422.88C1275.11 422.88 1282.45 426.592 1288.08 434.016V423.904H1302.42ZM1249.3 455.392C1249.3 460.939 1251.01 465.76 1254.42 469.856C1257.92 473.867 1262.57 475.872 1268.37 475.872C1274.26 475.872 1278.99 473.909 1282.58 469.984C1286.25 466.059 1288.08 461.195 1288.08 455.392C1288.08 449.504 1286.25 444.555 1282.58 440.544C1278.91 436.448 1274.17 434.4 1268.37 434.4C1262.57 434.4 1257.92 436.491 1254.42 440.672C1251.01 444.853 1249.3 449.76 1249.3 455.392ZM1380.15 464.224H1326.78C1327.12 469.173 1329.38 473.184 1333.56 476.256C1337.74 479.243 1342.52 480.736 1347.9 480.736C1356.43 480.736 1362.92 478.048 1367.35 472.672L1375.55 481.632C1368.21 489.227 1358.65 493.024 1346.87 493.024C1337.32 493.024 1329.17 489.867 1322.43 483.552C1315.77 477.152 1312.44 468.619 1312.44 457.952C1312.44 447.2 1315.85 438.667 1322.68 432.352C1329.51 426.037 1337.53 422.88 1346.75 422.88C1356.05 422.88 1363.94 425.696 1370.43 431.328C1376.91 436.875 1380.15 444.555 1380.15 454.368V464.224ZM1326.78 452.96H1365.82C1365.82 447.243 1364.03 442.848 1360.44 439.776C1356.86 436.704 1352.42 435.168 1347.13 435.168C1341.92 435.168 1337.23 436.789 1333.05 440.032C1328.87 443.189 1326.78 447.499 1326.78 452.96ZM1406.68 435.424V469.984C1406.68 473.227 1407.54 475.829 1409.24 477.792C1410.95 479.669 1413.34 480.608 1416.41 480.608C1419.48 480.608 1422.43 479.115 1425.24 476.128L1431.13 486.24C1426.1 490.763 1420.51 493.024 1414.36 493.024C1408.3 493.024 1403.1 490.933 1398.75 486.752C1394.48 482.485 1392.35 476.768 1392.35 469.6V435.424H1383.77V423.904H1392.35V402.528H1406.68V423.904H1424.6V435.424H1406.68ZM1495.62 492V402.528H1510.72V441.312H1555.14V402.528H1570.24V492H1555.14V455.392H1510.72V492H1495.62ZM1602.54 474.08C1606.64 478.176 1611.8 480.224 1618.03 480.224C1624.26 480.224 1629.38 478.176 1633.39 474.08C1637.48 469.899 1639.53 464.523 1639.53 457.952C1639.53 451.381 1637.48 446.048 1633.39 441.952C1629.38 437.771 1624.26 435.68 1618.03 435.68C1611.8 435.68 1606.64 437.771 1602.54 441.952C1598.53 446.048 1596.52 451.381 1596.52 457.952C1596.52 464.523 1598.53 469.899 1602.54 474.08ZM1643.63 482.912C1636.8 489.653 1628.27 493.024 1618.03 493.024C1607.79 493.024 1599.25 489.653 1592.43 482.912C1585.6 476.085 1582.19 467.765 1582.19 457.952C1582.19 448.139 1585.6 439.861 1592.43 433.12C1599.25 426.293 1607.79 422.88 1618.03 422.88C1628.27 422.88 1636.8 426.293 1643.63 433.12C1650.45 439.861 1653.87 448.139 1653.87 457.952C1653.87 467.765 1650.45 476.085 1643.63 482.912ZM1678.1 455.136V492H1663.77V423.904H1678.1V436.32C1680.15 432.139 1683.22 428.853 1687.32 426.464C1691.5 424.075 1695.98 422.88 1700.76 422.88C1711.51 422.88 1718.81 427.317 1722.65 436.192C1729.39 427.317 1737.79 422.88 1747.86 422.88C1755.54 422.88 1761.73 425.227 1766.42 429.92C1771.2 434.613 1773.59 441.397 1773.59 450.272V492H1759.26V454.624C1759.26 442.08 1754.05 435.808 1743.64 435.808C1738.78 435.808 1734.51 437.387 1730.84 440.544C1727.26 443.616 1725.38 448.139 1725.21 454.112V492H1710.87V454.624C1710.87 448.139 1709.72 443.403 1707.42 440.416C1705.11 437.344 1701.49 435.808 1696.54 435.808C1691.59 435.808 1687.28 437.472 1683.61 440.8C1679.94 444.043 1678.1 448.821 1678.1 455.136ZM1850.48 464.224H1797.1C1797.44 469.173 1799.7 473.184 1803.89 476.256C1808.07 479.243 1812.85 480.736 1818.22 480.736C1826.76 480.736 1833.24 478.048 1837.68 472.672L1845.87 481.632C1838.53 489.227 1828.97 493.024 1817.2 493.024C1807.64 493.024 1799.49 489.867 1792.75 483.552C1786.09 477.152 1782.77 468.619 1782.77 457.952C1782.77 447.2 1786.18 438.667 1793.01 432.352C1799.83 426.037 1807.85 422.88 1817.07 422.88C1826.37 422.88 1834.26 425.696 1840.75 431.328C1847.24 436.875 1850.48 444.555 1850.48 454.368V464.224ZM1797.1 452.96H1836.14C1836.14 447.243 1834.35 442.848 1830.77 439.776C1827.18 436.704 1822.74 435.168 1817.45 435.168C1812.25 435.168 1807.56 436.789 1803.37 440.032C1799.19 443.189 1797.1 447.499 1797.1 452.96ZM1921.34 402.528C1937.38 402.528 1949.71 406.453 1958.33 414.304C1966.95 422.069 1971.26 432.907 1971.26 446.816C1971.26 460.725 1967.07 471.733 1958.71 479.84C1950.35 487.947 1937.55 492 1920.31 492H1890.62V402.528H1921.34ZM1956.02 447.2C1956.02 426.72 1944.29 416.48 1920.82 416.48H1905.72V477.792H1922.49C1933.33 477.792 1941.6 475.232 1947.32 470.112C1953.12 464.907 1956.02 457.269 1956.02 447.2ZM2045.65 464.224H1992.28C1992.62 469.173 1994.88 473.184 1999.06 476.256C2003.24 479.243 2008.02 480.736 2013.4 480.736C2021.93 480.736 2028.42 478.048 2032.85 472.672L2041.05 481.632C2033.71 489.227 2024.15 493.024 2012.37 493.024C2002.82 493.024 1994.67 489.867 1987.93 483.552C1981.27 477.152 1977.94 468.619 1977.94 457.952C1977.94 447.2 1981.35 438.667 1988.18 432.352C1995.01 426.037 2003.03 422.88 2012.25 422.88C2021.55 422.88 2029.44 425.696 2035.93 431.328C2042.41 436.875 2045.65 444.555 2045.65 454.368V464.224ZM1992.28 452.96H2031.32C2031.32 447.243 2029.53 442.848 2025.94 439.776C2022.36 436.704 2017.92 435.168 2012.63 435.168C2007.42 435.168 2002.73 436.789 1998.55 440.032C1994.37 443.189 1992.28 447.499 1992.28 452.96ZM2069.35 492H2055.02V397.024H2069.35V492ZM2098.08 492H2083.74V423.904H2098.08V492ZM2084.64 410.336C2082.85 408.544 2081.95 406.411 2081.95 403.936C2081.95 401.461 2082.85 399.328 2084.64 397.536C2086.43 395.744 2088.56 394.848 2091.04 394.848C2093.51 394.848 2095.65 395.744 2097.44 397.536C2099.23 399.328 2100.13 401.461 2100.13 403.936C2100.13 406.411 2099.23 408.544 2097.44 410.336C2095.65 412.128 2093.51 413.024 2091.04 413.024C2088.56 413.024 2086.43 412.128 2084.64 410.336ZM2130.52 492L2103.12 423.904H2117.97L2138.71 475.36L2159.44 423.904H2174.29L2146.9 492H2130.52ZM2242.68 464.224H2189.3C2189.64 469.173 2191.9 473.184 2196.09 476.256C2200.27 479.243 2205.05 480.736 2210.42 480.736C2218.96 480.736 2225.44 478.048 2229.88 472.672L2238.07 481.632C2230.73 489.227 2221.17 493.024 2209.4 493.024C2199.84 493.024 2191.69 489.867 2184.95 483.552C2178.29 477.152 2174.97 468.619 2174.97 457.952C2174.97 447.2 2178.38 438.667 2185.21 432.352C2192.03 426.037 2200.05 422.88 2209.27 422.88C2218.57 422.88 2226.46 425.696 2232.95 431.328C2239.44 436.875 2242.68 444.555 2242.68 454.368V464.224ZM2189.3 452.96H2228.34C2228.34 447.243 2226.55 442.848 2222.97 439.776C2219.38 436.704 2214.94 435.168 2209.65 435.168C2204.45 435.168 2199.76 436.789 2195.57 440.032C2191.39 443.189 2189.3 447.499 2189.3 452.96ZM2287.76 437.344C2280.67 437.344 2275.34 439.648 2271.76 444.256C2268.17 448.864 2266.38 455.051 2266.38 462.816V492H2252.04V423.904H2266.38V437.6C2268.68 433.333 2271.8 429.835 2275.72 427.104C2279.73 424.373 2283.96 422.965 2288.4 422.88L2288.52 437.344C2288.27 437.344 2288.01 437.344 2287.76 437.344ZM2305.09 519.136C2298.86 519.136 2293.23 516.875 2288.2 512.352L2294.73 500.704C2297.71 503.52 2300.78 504.928 2303.94 504.928C2307.18 504.928 2309.79 503.776 2311.75 501.472C2313.8 499.168 2314.82 496.651 2314.82 493.92C2314.82 492.725 2305.65 469.387 2287.3 423.904H2302.66L2323.01 474.08L2343.37 423.904H2358.73L2325.7 504.8C2323.74 509.237 2320.92 512.736 2317.25 515.296C2313.58 517.856 2309.53 519.136 2305.09 519.136Z" fill="#F8F8F8"/>
<path d="M32.136 20.528C45.704 20.528 55.6027 23.1307 61.832 28.336C68.0613 33.5413 71.176 41.5627 71.176 52.4C71.176 63.2373 67.976 71.1733 61.576 76.208C55.2613 81.2427 45.5333 83.76 32.392 83.76H16.52V110H1.416V20.528H32.136ZM34.056 70.064C42.4187 70.064 48.0933 68.4853 51.08 65.328C54.152 62.0853 55.688 57.392 55.688 51.248C55.688 45.0187 53.768 40.624 49.928 38.064C46.088 35.504 40.072 34.224 31.88 34.224H16.52V70.064H34.056ZM143.828 82.224H90.452C90.7933 87.1733 93.0547 91.184 97.236 94.256C101.417 97.2427 106.196 98.736 111.572 98.736C120.105 98.736 126.591 96.048 131.028 90.672L139.22 99.632C131.881 107.227 122.324 111.024 110.548 111.024C100.991 111.024 92.8413 107.867 86.1 101.552C79.444 95.152 76.116 86.6187 76.116 75.952C76.116 65.2 79.5293 56.6667 86.356 50.352C93.1827 44.0373 101.204 40.88 110.42 40.88C119.721 40.88 127.615 43.696 134.1 49.328C140.585 54.8747 143.828 62.5547 143.828 72.368V82.224ZM90.452 70.96H129.492C129.492 65.2427 127.7 60.848 124.116 57.776C120.532 54.704 116.095 53.168 110.804 53.168C105.599 53.168 100.905 54.7893 96.724 58.032C92.5427 61.1893 90.452 65.4987 90.452 70.96ZM188.905 55.344C181.822 55.344 176.489 57.648 172.905 62.256C169.321 66.864 167.529 73.0507 167.529 80.816V110H153.193V41.904H167.529V55.6C169.833 51.3333 172.948 47.8347 176.873 45.104C180.884 42.3733 185.108 40.9653 189.545 40.88L189.673 55.344C189.417 55.344 189.161 55.344 188.905 55.344ZM246.18 89.648C246.18 96.1333 243.833 101.339 239.14 105.264C234.447 109.104 228.431 111.024 221.092 111.024C216.143 111.024 210.98 110.128 205.604 108.336C200.313 106.544 195.62 104.027 191.524 100.784L198.436 89.648C206.372 95.6213 214.052 98.608 221.476 98.608C224.719 98.608 227.279 97.8827 229.156 96.432C231.033 94.896 231.972 92.976 231.972 90.672C231.972 87.2587 227.449 84.1867 218.404 81.456C217.721 81.2 217.209 81.0293 216.868 80.944C202.703 77.104 195.62 70.704 195.62 61.744C195.62 55.4293 198.052 50.3947 202.916 46.64C207.865 42.8 214.265 40.88 222.116 40.88C229.967 40.88 237.391 43.184 244.388 47.792L239.012 58.416C233.465 54.7467 227.449 52.912 220.964 52.912C217.551 52.912 214.777 53.552 212.644 54.832C210.511 56.0267 209.444 57.8613 209.444 60.336C209.444 62.5547 210.553 64.176 212.772 65.2C214.308 65.968 216.441 66.6933 219.172 67.376C221.988 68.0587 224.463 68.7413 226.596 69.424C228.729 70.1067 230.777 70.8747 232.74 71.728C234.788 72.5813 236.964 73.776 239.268 75.312C243.876 78.384 246.18 83.1627 246.18 89.648ZM271.89 92.08C275.986 96.176 281.149 98.224 287.378 98.224C293.607 98.224 298.727 96.176 302.738 92.08C306.834 87.8987 308.882 82.5227 308.882 75.952C308.882 69.3813 306.834 64.048 302.738 59.952C298.727 55.7707 293.607 53.68 287.378 53.68C281.149 53.68 275.986 55.7707 271.89 59.952C267.879 64.048 265.874 69.3813 265.874 75.952C265.874 82.5227 267.879 87.8987 271.89 92.08ZM312.978 100.912C306.151 107.653 297.618 111.024 287.378 111.024C277.138 111.024 268.605 107.653 261.778 100.912C254.951 94.0853 251.538 85.7653 251.538 75.952C251.538 66.1387 254.951 57.8613 261.778 51.12C268.605 44.2933 277.138 40.88 287.378 40.88C297.618 40.88 306.151 44.2933 312.978 51.12C319.805 57.8613 323.218 66.1387 323.218 75.952C323.218 85.7653 319.805 94.0853 312.978 100.912ZM347.454 73.136V110H333.118V41.904H347.454V54.32C349.758 50.1387 352.915 46.8533 356.926 44.464C361.022 42.0747 365.417 40.88 370.11 40.88C377.79 40.88 383.977 43.2267 388.67 47.92C393.449 52.6133 395.838 59.3973 395.838 68.272V110H381.502V72.624C381.502 60.08 376.297 53.808 365.886 53.808C360.937 53.808 356.627 55.472 352.958 58.8C349.289 62.0427 347.454 66.8213 347.454 73.136ZM464.636 110H451.58V100.912C445.948 107.653 438.396 111.024 428.924 111.024C421.841 111.024 415.953 109.019 411.26 105.008C406.652 100.997 404.348 95.664 404.348 89.008C404.348 82.2667 406.823 77.232 411.772 73.904C416.721 70.576 423.42 68.912 431.868 68.912H450.428V66.352C450.428 57.3067 445.393 52.784 435.324 52.784C429.009 52.784 422.439 55.088 415.612 59.696L409.212 50.736C417.489 44.1653 426.876 40.88 437.372 40.88C445.393 40.88 451.921 42.928 456.956 47.024C462.076 51.0347 464.636 57.392 464.636 66.096V110ZM450.3 84.656V78.896H434.172C423.847 78.896 418.684 82.1387 418.684 88.624C418.684 91.952 419.964 94.512 422.524 96.304C425.084 98.0107 428.625 98.864 433.148 98.864C437.756 98.864 441.767 97.584 445.18 95.024C448.593 92.464 450.3 89.008 450.3 84.656ZM492.529 110H478.193V15.024H492.529V110ZM521.254 110H506.918V41.904H521.254V110ZM507.814 28.336C506.022 26.544 505.126 24.4107 505.126 21.936C505.126 19.4613 506.022 17.328 507.814 15.536C509.606 13.744 511.739 12.848 514.214 12.848C516.689 12.848 518.822 13.744 520.614 15.536C522.406 17.328 523.302 19.4613 523.302 21.936C523.302 24.4107 522.406 26.544 520.614 28.336C518.822 30.128 516.689 31.024 514.214 31.024C511.739 31.024 509.606 30.128 507.814 28.336ZM533.467 54.448V42.16H586.715V55.088L548.443 97.584H588.763V110H530.907V96.048L568.155 54.448H533.467ZM661.853 82.224H608.477C608.818 87.1733 611.08 91.184 615.261 94.256C619.442 97.2427 624.221 98.736 629.597 98.736C638.13 98.736 644.616 96.048 649.053 90.672L657.245 99.632C649.906 107.227 640.349 111.024 628.573 111.024C619.016 111.024 610.866 107.867 604.125 101.552C597.469 95.152 594.141 86.6187 594.141 75.952C594.141 65.2 597.554 56.6667 604.381 50.352C611.208 44.0373 619.229 40.88 628.445 40.88C637.746 40.88 645.64 43.696 652.125 49.328C658.61 54.8747 661.853 62.5547 661.853 72.368V82.224ZM608.477 70.96H647.517C647.517 65.2427 645.725 60.848 642.141 57.776C638.557 54.704 634.12 53.168 628.829 53.168C623.624 53.168 618.93 54.7893 614.749 58.032C610.568 61.1893 608.477 65.4987 608.477 70.96ZM698.994 111.024C690.375 111.024 682.866 107.781 676.466 101.296C670.066 94.8107 666.866 86.2773 666.866 75.696C666.866 65.1147 670.151 56.6667 676.722 50.352C683.293 44.0373 691.101 40.88 700.146 40.88C709.277 40.88 716.615 44.72 722.162 52.4V15.024H736.498V110H722.162V99.76C716.871 107.269 709.149 111.024 698.994 111.024ZM681.202 76.336C681.202 82.8213 683.293 88.112 687.474 92.208C691.655 96.304 696.562 98.352 702.194 98.352C707.826 98.352 712.605 96.304 716.53 92.208C720.455 88.0267 722.418 82.6933 722.418 76.208C722.418 69.7227 720.455 64.304 716.53 59.952C712.605 55.6 707.783 53.424 702.066 53.424C696.349 53.424 691.442 55.6 687.346 59.952C683.25 64.304 681.202 69.7653 681.202 76.336ZM828.055 89.648C828.055 96.1333 825.708 101.339 821.015 105.264C816.322 109.104 810.306 111.024 802.967 111.024C798.018 111.024 792.855 110.128 787.479 108.336C782.188 106.544 777.495 104.027 773.399 100.784L780.311 89.648C788.247 95.6213 795.927 98.608 803.351 98.608C806.594 98.608 809.154 97.8827 811.031 96.432C812.908 94.896 813.847 92.976 813.847 90.672C813.847 87.2587 809.324 84.1867 800.279 81.456C799.596 81.2 799.084 81.0293 798.743 80.944C784.578 77.104 777.495 70.704 777.495 61.744C777.495 55.4293 779.927 50.3947 784.791 46.64C789.74 42.8 796.14 40.88 803.991 40.88C811.842 40.88 819.266 43.184 826.263 47.792L820.887 58.416C815.34 54.7467 809.324 52.912 802.839 52.912C799.426 52.912 796.652 53.552 794.519 54.832C792.386 56.0267 791.319 57.8613 791.319 60.336C791.319 62.5547 792.428 64.176 794.647 65.2C796.183 65.968 798.316 66.6933 801.047 67.376C803.863 68.0587 806.338 68.7413 808.471 69.424C810.604 70.1067 812.652 70.8747 814.615 71.728C816.663 72.5813 818.839 73.776 821.143 75.312C825.751 78.384 828.055 83.1627 828.055 89.648ZM852.229 73.136V110H837.893V15.152H852.229V54.32C854.277 50.1387 857.349 46.8533 861.445 44.464C865.626 42.0747 870.106 40.88 874.885 40.88C882.565 40.88 888.752 43.2267 893.445 47.92C898.224 52.6133 900.613 59.3973 900.613 68.272V110H886.277V72.624C886.277 60.08 881.072 53.808 870.661 53.808C865.712 53.808 861.402 55.472 857.733 58.8C854.064 62.0427 852.229 66.8213 852.229 73.136ZM930.115 92.08C934.211 96.176 939.374 98.224 945.603 98.224C951.832 98.224 956.952 96.176 960.963 92.08C965.059 87.8987 967.107 82.5227 967.107 75.952C967.107 69.3813 965.059 64.048 960.963 59.952C956.952 55.7707 951.832 53.68 945.603 53.68C939.374 53.68 934.211 55.7707 930.115 59.952C926.104 64.048 924.099 69.3813 924.099 75.952C924.099 82.5227 926.104 87.8987 930.115 92.08ZM971.203 100.912C964.376 107.653 955.843 111.024 945.603 111.024C935.363 111.024 926.83 107.653 920.003 100.912C913.176 94.0853 909.763 85.7653 909.763 75.952C909.763 66.1387 913.176 57.8613 920.003 51.12C926.83 44.2933 935.363 40.88 945.603 40.88C955.843 40.88 964.376 44.2933 971.203 51.12C978.03 57.8613 981.443 66.1387 981.443 75.952C981.443 85.7653 978.03 94.0853 971.203 100.912ZM1027.82 40.88C1036.95 40.88 1044.76 44.0373 1051.25 50.352C1057.73 56.6667 1060.97 65.072 1060.97 75.568C1060.97 86.064 1057.73 94.5973 1051.25 101.168C1044.85 107.739 1037.34 111.024 1028.72 111.024C1020.19 111.024 1012.51 107.269 1005.68 99.76V134.832H991.343V41.904H1005.68V53.808C1011.31 45.1893 1018.69 40.88 1027.82 40.88ZM1005.42 76.08C1005.42 82.5653 1007.39 87.8987 1011.31 92.08C1015.24 96.176 1020.01 98.224 1025.65 98.224C1031.28 98.224 1036.19 96.176 1040.37 92.08C1044.55 87.984 1046.64 82.6933 1046.64 76.208C1046.64 69.6373 1044.59 64.2187 1040.49 59.952C1036.4 55.6 1031.49 53.424 1025.77 53.424C1020.06 53.424 1015.24 55.6 1011.31 59.952C1007.39 64.2187 1005.42 69.5947 1005.42 76.08ZM1107.42 40.88C1116.55 40.88 1124.36 44.0373 1130.85 50.352C1137.33 56.6667 1140.57 65.072 1140.57 75.568C1140.57 86.064 1137.33 94.5973 1130.85 101.168C1124.45 107.739 1116.94 111.024 1108.32 111.024C1099.79 111.024 1092.11 107.269 1085.28 99.76V134.832H1070.94V41.904H1085.28V53.808C1090.91 45.1893 1098.29 40.88 1107.42 40.88ZM1085.02 76.08C1085.02 82.5653 1086.99 87.8987 1090.91 92.08C1094.84 96.176 1099.61 98.224 1105.25 98.224C1110.88 98.224 1115.79 96.176 1119.97 92.08C1124.15 87.984 1126.24 82.6933 1126.24 76.208C1126.24 69.6373 1124.19 64.2187 1120.09 59.952C1116 55.6 1111.09 53.424 1105.37 53.424C1099.66 53.424 1094.84 55.6 1090.91 59.952C1086.99 64.2187 1085.02 69.5947 1085.02 76.08ZM1164.88 110H1150.54V41.904H1164.88V110ZM1151.44 28.336C1149.65 26.544 1148.75 24.4107 1148.75 21.936C1148.75 19.4613 1149.65 17.328 1151.44 15.536C1153.23 13.744 1155.36 12.848 1157.84 12.848C1160.31 12.848 1162.45 13.744 1164.24 15.536C1166.03 17.328 1166.93 19.4613 1166.93 21.936C1166.93 24.4107 1166.03 26.544 1164.24 28.336C1162.45 30.128 1160.31 31.024 1157.84 31.024C1155.36 31.024 1153.23 30.128 1151.44 28.336ZM1193.6 73.136V110H1179.27V41.904H1193.6V54.32C1195.91 50.1387 1199.07 46.8533 1203.08 44.464C1207.17 42.0747 1211.57 40.88 1216.26 40.88C1223.94 40.88 1230.13 43.2267 1234.82 47.92C1239.6 52.6133 1241.99 59.3973 1241.99 68.272V110H1227.65V72.624C1227.65 60.08 1222.45 53.808 1212.04 53.808C1207.09 53.808 1202.78 55.472 1199.11 58.8C1195.44 62.0427 1193.6 66.8213 1193.6 73.136ZM1318.59 41.904V101.296C1318.59 113.328 1315.31 122.331 1308.74 128.304C1302.25 134.363 1293.89 137.392 1283.65 137.392C1273.41 137.392 1264.15 134.192 1255.87 127.792L1262.66 116.912C1269.31 121.947 1276.01 124.464 1282.75 124.464C1289.58 124.464 1294.96 122.715 1298.88 119.216C1302.89 115.717 1304.9 110.128 1304.9 102.448V93.744C1302.76 97.7547 1299.69 100.955 1295.68 103.344C1291.76 105.733 1287.32 106.928 1282.37 106.928C1273.32 106.928 1265.9 103.771 1260.1 97.456C1254.3 91.1413 1251.39 83.2907 1251.39 73.904C1251.39 64.5173 1254.3 56.6667 1260.1 50.352C1265.9 44.0373 1273.28 40.88 1282.24 40.88C1291.29 40.88 1298.63 44.592 1304.26 52.016V41.904H1318.59ZM1265.47 73.392C1265.47 78.9387 1267.18 83.76 1270.59 87.856C1274.09 91.8667 1278.74 93.872 1284.55 93.872C1290.43 93.872 1295.17 91.9093 1298.75 87.984C1302.42 84.0587 1304.26 79.1947 1304.26 73.392C1304.26 67.504 1302.42 62.5547 1298.75 58.544C1295.08 54.448 1290.35 52.4 1284.55 52.4C1278.74 52.4 1274.09 54.4907 1270.59 58.672C1267.18 62.8533 1265.47 67.76 1265.47 73.392ZM1430.81 20.528H1445.92V110H1429.53L1378.84 44.72V110H1363.74V20.528H1378.84L1430.81 87.344V20.528ZM1525.65 82.224H1472.28C1472.62 87.1733 1474.88 91.184 1479.06 94.256C1483.24 97.2427 1488.02 98.736 1493.4 98.736C1501.93 98.736 1508.42 96.048 1512.85 90.672L1521.05 99.632C1513.71 107.227 1504.15 111.024 1492.37 111.024C1482.82 111.024 1474.67 107.867 1467.93 101.552C1461.27 95.152 1457.94 86.6187 1457.94 75.952C1457.94 65.2 1461.35 56.6667 1468.18 50.352C1475.01 44.0373 1483.03 40.88 1492.25 40.88C1501.55 40.88 1509.44 43.696 1515.93 49.328C1522.41 54.8747 1525.65 62.5547 1525.65 72.368V82.224ZM1472.28 70.96H1511.32C1511.32 65.2427 1509.53 60.848 1505.94 57.776C1502.36 54.704 1497.92 53.168 1492.63 53.168C1487.42 53.168 1482.73 54.7893 1478.55 58.032C1474.37 61.1893 1472.28 65.4987 1472.28 70.96ZM1566.89 110H1550.51L1526.95 41.904H1541.8L1558.7 93.36L1575.59 41.904H1590.44L1607.34 93.36L1624.23 41.904H1639.08L1615.53 110H1599.15L1583.02 63.408L1566.89 110Z" fill="#F8F8F8"/>
<path d="M-16.584 233V143.528H-1.48V218.664H39.352V233H-16.584ZM62.215 215.08C66.311 219.176 71.4737 221.224 77.703 221.224C83.9323 221.224 89.0523 219.176 93.063 215.08C97.159 210.899 99.207 205.523 99.207 198.952C99.207 192.381 97.159 187.048 93.063 182.952C89.0523 178.771 83.9323 176.68 77.703 176.68C71.4737 176.68 66.311 178.771 62.215 182.952C58.2043 187.048 56.199 192.381 56.199 198.952C56.199 205.523 58.2043 210.899 62.215 215.08ZM103.303 223.912C96.4763 230.653 87.943 234.024 77.703 234.024C67.463 234.024 58.9297 230.653 52.103 223.912C45.2763 217.085 41.863 208.765 41.863 198.952C41.863 189.139 45.2763 180.861 52.103 174.12C58.9297 167.293 67.463 163.88 77.703 163.88C87.943 163.88 96.4763 167.293 103.303 174.12C110.13 180.861 113.543 189.139 113.543 198.952C113.543 208.765 110.13 217.085 103.303 223.912ZM130.769 260.136C124.54 260.136 118.908 257.875 113.873 253.352L120.401 241.704C123.388 244.52 126.46 245.928 129.617 245.928C132.86 245.928 135.462 244.776 137.425 242.472C139.473 240.168 140.497 237.651 140.497 234.92C140.497 233.725 131.324 210.387 112.977 164.904H128.337L148.689 215.08L169.041 164.904H184.401L151.377 245.8C149.414 250.237 146.598 253.736 142.929 256.296C139.26 258.856 135.206 260.136 130.769 260.136ZM243.586 233H230.53V223.912C224.898 230.653 217.346 234.024 207.874 234.024C200.791 234.024 194.903 232.019 190.21 228.008C185.602 223.997 183.298 218.664 183.298 212.008C183.298 205.267 185.773 200.232 190.722 196.904C195.671 193.576 202.37 191.912 210.818 191.912H229.378V189.352C229.378 180.307 224.343 175.784 214.274 175.784C207.959 175.784 201.389 178.088 194.562 182.696L188.162 173.736C196.439 167.165 205.826 163.88 216.322 163.88C224.343 163.88 230.871 165.928 235.906 170.024C241.026 174.035 243.586 180.392 243.586 189.096V233ZM229.25 207.656V201.896H213.122C202.797 201.896 197.634 205.139 197.634 211.624C197.634 214.952 198.914 217.512 201.474 219.304C204.034 221.011 207.575 221.864 212.098 221.864C216.706 221.864 220.717 220.584 224.13 218.024C227.543 215.464 229.25 212.008 229.25 207.656ZM271.479 233H257.143V138.024H271.479V233ZM303.532 176.424V210.984C303.532 214.227 304.385 216.829 306.092 218.792C307.799 220.669 310.188 221.608 313.26 221.608C316.332 221.608 319.276 220.115 322.092 217.128L327.98 227.24C322.945 231.763 317.356 234.024 311.212 234.024C305.153 234.024 299.948 231.933 295.596 227.752C291.329 223.485 289.196 217.768 289.196 210.6V176.424H280.62V164.904H289.196V143.528H303.532V164.904H321.452V176.424H303.532ZM341.544 260.136C335.315 260.136 329.683 257.875 324.648 253.352L331.176 241.704C334.163 244.52 337.235 245.928 340.392 245.928C343.635 245.928 346.237 244.776 348.2 242.472C350.248 240.168 351.272 237.651 351.272 234.92C351.272 233.725 342.099 210.387 323.752 164.904H339.112L359.464 215.08L379.816 164.904H395.176L362.152 245.8C360.189 250.237 357.373 253.736 353.704 256.296C350.035 258.856 345.981 260.136 341.544 260.136ZM464.505 178.344C457.422 178.344 452.089 180.648 448.505 185.256C444.921 189.864 443.129 196.051 443.129 203.816V233H428.793V164.904H443.129V178.6C445.433 174.333 448.548 170.835 452.473 168.104C456.484 165.373 460.708 163.965 465.145 163.88L465.273 178.344C465.017 178.344 464.761 178.344 464.505 178.344ZM536.628 205.224H483.252C483.593 210.173 485.855 214.184 490.036 217.256C494.217 220.243 498.996 221.736 504.372 221.736C512.905 221.736 519.391 219.048 523.828 213.672L532.02 222.632C524.681 230.227 515.124 234.024 503.348 234.024C493.791 234.024 485.641 230.867 478.9 224.552C472.244 218.152 468.916 209.619 468.916 198.952C468.916 188.2 472.329 179.667 479.156 173.352C485.983 167.037 494.004 163.88 503.22 163.88C512.521 163.88 520.415 166.696 526.9 172.328C533.385 177.875 536.628 185.555 536.628 195.368V205.224ZM483.252 193.96H522.292C522.292 188.243 520.5 183.848 516.916 180.776C513.332 177.704 508.895 176.168 503.604 176.168C498.399 176.168 493.705 177.789 489.524 181.032C485.343 184.189 483.252 188.499 483.252 193.96ZM577.865 233H561.481L537.929 164.904H552.777L569.673 216.36L586.569 164.904H601.417L618.313 216.36L635.209 164.904H650.057L626.505 233H610.121L593.993 186.408L577.865 233ZM710.886 233H697.83V223.912C692.198 230.653 684.646 234.024 675.174 234.024C668.091 234.024 662.203 232.019 657.51 228.008C652.902 223.997 650.598 218.664 650.598 212.008C650.598 205.267 653.073 200.232 658.022 196.904C662.971 193.576 669.67 191.912 678.118 191.912H696.678V189.352C696.678 180.307 691.643 175.784 681.574 175.784C675.259 175.784 668.689 178.088 661.862 182.696L655.462 173.736C663.739 167.165 673.126 163.88 683.622 163.88C691.643 163.88 698.171 165.928 703.206 170.024C708.326 174.035 710.886 180.392 710.886 189.096V233ZM696.55 207.656V201.896H680.422C670.097 201.896 664.934 205.139 664.934 211.624C664.934 214.952 666.214 217.512 668.774 219.304C671.334 221.011 674.875 221.864 679.398 221.864C684.006 221.864 688.017 220.584 691.43 218.024C694.843 215.464 696.55 212.008 696.55 207.656ZM760.155 178.344C753.072 178.344 747.739 180.648 744.155 185.256C740.571 189.864 738.779 196.051 738.779 203.816V233H724.443V164.904H738.779V178.6C741.083 174.333 744.198 170.835 748.123 168.104C752.134 165.373 756.358 163.965 760.795 163.88L760.923 178.344C760.667 178.344 760.411 178.344 760.155 178.344ZM796.694 234.024C788.075 234.024 780.566 230.781 774.166 224.296C767.766 217.811 764.566 209.277 764.566 198.696C764.566 188.115 767.851 179.667 774.422 173.352C780.993 167.037 788.801 163.88 797.846 163.88C806.977 163.88 814.315 167.72 819.862 175.4V138.024H834.198V233H819.862V222.76C814.571 230.269 806.849 234.024 796.694 234.024ZM778.902 199.336C778.902 205.821 780.993 211.112 785.174 215.208C789.355 219.304 794.262 221.352 799.894 221.352C805.526 221.352 810.305 219.304 814.23 215.208C818.155 211.027 820.118 205.693 820.118 199.208C820.118 192.723 818.155 187.304 814.23 182.952C810.305 178.6 805.483 176.424 799.766 176.424C794.049 176.424 789.142 178.6 785.046 182.952C780.95 187.304 778.902 192.765 778.902 199.336ZM897.03 212.648C897.03 219.133 894.683 224.339 889.99 228.264C885.297 232.104 879.281 234.024 871.942 234.024C866.993 234.024 861.83 233.128 856.454 231.336C851.163 229.544 846.47 227.027 842.374 223.784L849.286 212.648C857.222 218.621 864.902 221.608 872.326 221.608C875.569 221.608 878.129 220.883 880.006 219.432C881.883 217.896 882.822 215.976 882.822 213.672C882.822 210.259 878.299 207.187 869.254 204.456C868.571 204.2 868.059 204.029 867.718 203.944C853.553 200.104 846.47 193.704 846.47 184.744C846.47 178.429 848.902 173.395 853.766 169.64C858.715 165.8 865.115 163.88 872.966 163.88C880.817 163.88 888.241 166.184 895.238 170.792L889.862 181.416C884.315 177.747 878.299 175.912 871.814 175.912C868.401 175.912 865.627 176.552 863.494 177.832C861.361 179.027 860.294 180.861 860.294 183.336C860.294 185.555 861.403 187.176 863.622 188.2C865.158 188.968 867.291 189.693 870.022 190.376C872.838 191.059 875.313 191.741 877.446 192.424C879.579 193.107 881.627 193.875 883.59 194.728C885.638 195.581 887.814 196.776 890.118 198.312C894.726 201.384 897.03 206.163 897.03 212.648ZM1000.49 143.528V157.736H952.745V181.416H995.625V194.856H952.745V218.792H1002.02V233H937.641V143.528H1000.49ZM1068.11 233H1055.05V223.912C1049.42 230.653 1041.87 234.024 1032.4 234.024C1025.32 234.024 1019.43 232.019 1014.73 228.008C1010.13 223.997 1007.82 218.664 1007.82 212.008C1007.82 205.267 1010.3 200.232 1015.25 196.904C1020.2 193.576 1026.89 191.912 1035.34 191.912H1053.9V189.352C1053.9 180.307 1048.87 175.784 1038.8 175.784C1032.48 175.784 1025.91 178.088 1019.09 182.696L1012.69 173.736C1020.96 167.165 1030.35 163.88 1040.85 163.88C1048.87 163.88 1055.4 165.928 1060.43 170.024C1065.55 174.035 1068.11 180.392 1068.11 189.096V233ZM1053.77 207.656V201.896H1037.65C1027.32 201.896 1022.16 205.139 1022.16 211.624C1022.16 214.952 1023.44 217.512 1026 219.304C1028.56 221.011 1032.1 221.864 1036.62 221.864C1041.23 221.864 1045.24 220.584 1048.65 218.024C1052.07 215.464 1053.77 212.008 1053.77 207.656ZM1130.18 212.648C1130.18 219.133 1127.83 224.339 1123.14 228.264C1118.45 232.104 1112.43 234.024 1105.09 234.024C1100.14 234.024 1094.98 233.128 1089.6 231.336C1084.31 229.544 1079.62 227.027 1075.52 223.784L1082.44 212.648C1090.37 218.621 1098.05 221.608 1105.48 221.608C1108.72 221.608 1111.28 220.883 1113.16 219.432C1115.03 217.896 1115.97 215.976 1115.97 213.672C1115.97 210.259 1111.45 207.187 1102.4 204.456C1101.72 204.2 1101.21 204.029 1100.87 203.944C1086.7 200.104 1079.62 193.704 1079.62 184.744C1079.62 178.429 1082.05 173.395 1086.92 169.64C1091.87 165.8 1098.27 163.88 1106.12 163.88C1113.97 163.88 1121.39 166.184 1128.39 170.792L1123.01 181.416C1117.47 177.747 1111.45 175.912 1104.96 175.912C1101.55 175.912 1098.78 176.552 1096.64 177.832C1094.51 179.027 1093.44 180.861 1093.44 183.336C1093.44 185.555 1094.55 187.176 1096.77 188.2C1098.31 188.968 1100.44 189.693 1103.17 190.376C1105.99 191.059 1108.46 191.741 1110.6 192.424C1112.73 193.107 1114.78 193.875 1116.74 194.728C1118.79 195.581 1120.96 196.776 1123.27 198.312C1127.88 201.384 1130.18 206.163 1130.18 212.648ZM1148.59 260.136C1142.36 260.136 1136.73 257.875 1131.7 253.352L1138.23 241.704C1141.21 244.52 1144.28 245.928 1147.44 245.928C1150.68 245.928 1153.29 244.776 1155.25 242.472C1157.3 240.168 1158.32 237.651 1158.32 234.92C1158.32 233.725 1149.15 210.387 1130.8 164.904H1146.16L1166.51 215.08L1186.87 164.904H1202.23L1169.2 245.8C1167.24 250.237 1164.42 253.736 1160.75 256.296C1157.08 258.856 1153.03 260.136 1148.59 260.136ZM1271.55 178.344C1264.47 178.344 1259.14 180.648 1255.55 185.256C1251.97 189.864 1250.18 196.051 1250.18 203.816V233H1235.84V164.904H1250.18V178.6C1252.48 174.333 1255.6 170.835 1259.52 168.104C1263.53 165.373 1267.76 163.965 1272.19 163.88L1272.32 178.344C1272.07 178.344 1271.81 178.344 1271.55 178.344ZM1343.68 205.224H1290.3C1290.64 210.173 1292.9 214.184 1297.09 217.256C1301.27 220.243 1306.05 221.736 1311.42 221.736C1319.96 221.736 1326.44 219.048 1330.88 213.672L1339.07 222.632C1331.73 230.227 1322.17 234.024 1310.4 234.024C1300.84 234.024 1292.69 230.867 1285.95 224.552C1279.29 218.152 1275.97 209.619 1275.97 198.952C1275.97 188.2 1279.38 179.667 1286.21 173.352C1293.03 167.037 1301.05 163.88 1310.27 163.88C1319.57 163.88 1327.46 166.696 1333.95 172.328C1340.44 177.875 1343.68 185.555 1343.68 195.368V205.224ZM1290.3 193.96H1329.34C1329.34 188.243 1327.55 183.848 1323.97 180.776C1320.38 177.704 1315.94 176.168 1310.65 176.168C1305.45 176.168 1300.76 177.789 1296.57 181.032C1292.39 184.189 1290.3 188.499 1290.3 193.96ZM1370.21 176.424V210.984C1370.21 214.227 1371.06 216.829 1372.77 218.792C1374.47 220.669 1376.86 221.608 1379.94 221.608C1383.01 221.608 1385.95 220.115 1388.77 217.128L1394.66 227.24C1389.62 231.763 1384.03 234.024 1377.89 234.024C1371.83 234.024 1366.62 231.933 1362.27 227.752C1358 223.485 1355.87 217.768 1355.87 210.6V176.424H1347.3V164.904H1355.87V143.528H1370.21V164.904H1388.13V176.424H1370.21ZM1447.26 201.768V164.904H1461.6V233H1447.26V220.584C1444.96 224.765 1441.76 228.051 1437.66 230.44C1433.65 232.829 1429.3 234.024 1424.6 234.024C1416.92 234.024 1410.69 231.677 1405.92 226.984C1401.22 222.291 1398.88 215.507 1398.88 206.632V164.904H1413.21V202.28C1413.21 214.824 1418.42 221.096 1428.83 221.096C1433.78 221.096 1438.09 219.475 1441.76 216.232C1445.42 212.904 1447.26 208.083 1447.26 201.768ZM1511.71 178.344C1504.62 178.344 1499.29 180.648 1495.71 185.256C1492.12 189.864 1490.33 196.051 1490.33 203.816V233H1475.99V164.904H1490.33V178.6C1492.63 174.333 1495.75 170.835 1499.67 168.104C1503.68 165.373 1507.91 163.965 1512.35 163.88L1512.47 178.344C1512.22 178.344 1511.96 178.344 1511.71 178.344ZM1534.8 196.136V233H1520.47V164.904H1534.8V177.32C1537.11 173.139 1540.27 169.853 1544.28 167.464C1548.37 165.075 1552.77 163.88 1557.46 163.88C1565.14 163.88 1571.33 166.227 1576.02 170.92C1580.8 175.613 1583.19 182.397 1583.19 191.272V233H1568.85V195.624C1568.85 183.08 1563.65 176.808 1553.24 176.808C1548.29 176.808 1543.98 178.472 1540.31 181.8C1536.64 185.043 1534.8 189.821 1534.8 196.136ZM1645.33 212.648C1645.33 219.133 1642.98 224.339 1638.29 228.264C1633.6 232.104 1627.58 234.024 1620.24 234.024C1615.29 234.024 1610.13 233.128 1604.75 231.336C1599.46 229.544 1594.77 227.027 1590.67 223.784L1597.59 212.648C1605.52 218.621 1613.2 221.608 1620.63 221.608C1623.87 221.608 1626.43 220.883 1628.31 219.432C1630.18 217.896 1631.12 215.976 1631.12 213.672C1631.12 210.259 1626.6 207.187 1617.55 204.456C1616.87 204.2 1616.36 204.029 1616.02 203.944C1601.85 200.104 1594.77 193.704 1594.77 184.744C1594.77 178.429 1597.2 173.395 1602.07 169.64C1607.02 165.8 1613.42 163.88 1621.27 163.88C1629.12 163.88 1636.54 166.184 1643.54 170.792L1638.16 181.416C1632.62 177.747 1626.6 175.912 1620.11 175.912C1616.7 175.912 1613.93 176.552 1611.79 177.832C1609.66 179.027 1608.59 180.861 1608.59 183.336C1608.59 185.555 1609.7 187.176 1611.92 188.2C1613.46 188.968 1615.59 189.693 1618.32 190.376C1621.14 191.059 1623.61 191.741 1625.75 192.424C1627.88 193.107 1629.93 193.875 1631.89 194.728C1633.94 195.581 1636.11 196.776 1638.42 198.312C1643.03 201.384 1645.33 206.163 1645.33 212.648Z" fill="#F8F8F8"/>
<path d="M12.245 620H-2.859V530.528H20.693L47.701 586.72L74.709 530.528H98.133V620H83.029V550.112L51.797 612.192H43.349L12.245 550.112V620ZM130.44 602.08C134.536 606.176 139.699 608.224 145.928 608.224C152.157 608.224 157.277 606.176 161.288 602.08C165.384 597.899 167.432 592.523 167.432 585.952C167.432 579.381 165.384 574.048 161.288 569.952C157.277 565.771 152.157 563.68 145.928 563.68C139.699 563.68 134.536 565.771 130.44 569.952C126.429 574.048 124.424 579.381 124.424 585.952C124.424 592.523 126.429 597.899 130.44 602.08ZM171.528 610.912C164.701 617.653 156.168 621.024 145.928 621.024C135.688 621.024 127.155 617.653 120.328 610.912C113.501 604.085 110.088 595.765 110.088 585.952C110.088 576.139 113.501 567.861 120.328 561.12C127.155 554.293 135.688 550.88 145.928 550.88C156.168 550.88 164.701 554.293 171.528 561.12C178.355 567.861 181.768 576.139 181.768 585.952C181.768 595.765 178.355 604.085 171.528 610.912ZM206.004 583.136V620H191.668V551.904H206.004V564.32C208.308 560.139 211.465 556.853 215.476 554.464C219.572 552.075 223.967 550.88 228.66 550.88C236.34 550.88 242.527 553.227 247.22 557.92C251.999 562.613 254.388 569.397 254.388 578.272V620H240.052V582.624C240.052 570.08 234.847 563.808 224.436 563.808C219.487 563.808 215.177 565.472 211.508 568.8C207.839 572.043 206.004 576.821 206.004 583.136ZM331.378 592.224H278.002C278.343 597.173 280.605 601.184 284.786 604.256C288.967 607.243 293.746 608.736 299.122 608.736C307.655 608.736 314.141 606.048 318.578 600.672L326.77 609.632C319.431 617.227 309.874 621.024 298.098 621.024C288.541 621.024 280.391 617.867 273.65 611.552C266.994 605.152 263.666 596.619 263.666 585.952C263.666 575.2 267.079 566.667 273.906 560.352C280.733 554.037 288.754 550.88 297.97 550.88C307.271 550.88 315.165 553.696 321.65 559.328C328.135 564.875 331.378 572.555 331.378 582.368V592.224ZM278.002 580.96H317.042C317.042 575.243 315.25 570.848 311.666 567.776C308.082 564.704 303.645 563.168 298.354 563.168C293.149 563.168 288.455 564.789 284.274 568.032C280.093 571.189 278.002 575.499 278.002 580.96ZM348.569 647.136C342.34 647.136 336.708 644.875 331.673 640.352L338.201 628.704C341.188 631.52 344.26 632.928 347.417 632.928C350.66 632.928 353.262 631.776 355.225 629.472C357.273 627.168 358.297 624.651 358.297 621.92C358.297 620.725 349.124 597.387 330.777 551.904H346.137L366.489 602.08L386.841 551.904H402.201L369.177 632.8C367.214 637.237 364.398 640.736 360.729 643.296C357.06 645.856 353.006 647.136 348.569 647.136ZM472.298 550.88C481.429 550.88 489.237 554.037 495.722 560.352C502.207 566.667 505.45 575.072 505.45 585.568C505.45 596.064 502.207 604.597 495.722 611.168C489.322 617.739 481.813 621.024 473.194 621.024C464.661 621.024 456.981 617.269 450.154 609.76V620H435.818V525.024H450.154V563.808C455.786 555.189 463.167 550.88 472.298 550.88ZM449.898 586.08C449.898 592.565 451.861 597.899 455.786 602.08C459.711 606.176 464.49 608.224 470.122 608.224C475.754 608.224 480.661 606.176 484.842 602.08C489.023 597.984 491.114 592.693 491.114 586.208C491.114 579.637 489.066 574.219 484.97 569.952C480.874 565.6 475.967 563.424 470.25 563.424C464.533 563.424 459.711 565.6 455.786 569.952C451.861 574.219 449.898 579.595 449.898 586.08ZM570.586 620H557.53V610.912C551.898 617.653 544.346 621.024 534.874 621.024C527.791 621.024 521.903 619.019 517.21 615.008C512.602 610.997 510.298 605.664 510.298 599.008C510.298 592.267 512.773 587.232 517.722 583.904C522.671 580.576 529.37 578.912 537.818 578.912H556.378V576.352C556.378 567.307 551.343 562.784 541.274 562.784C534.959 562.784 528.389 565.088 521.562 569.696L515.162 560.736C523.439 554.165 532.826 550.88 543.322 550.88C551.343 550.88 557.871 552.928 562.906 557.024C568.026 561.035 570.586 567.392 570.586 576.096V620ZM556.25 594.656V588.896H540.122C529.797 588.896 524.634 592.139 524.634 598.624C524.634 601.952 525.914 604.512 528.474 606.304C531.034 608.011 534.575 608.864 539.098 608.864C543.706 608.864 547.717 607.584 551.13 605.024C554.543 602.464 556.25 599.008 556.25 594.656ZM614.351 621.024C604.879 621.024 596.73 617.824 589.903 611.424C583.076 604.939 579.663 596.491 579.663 586.08C579.663 575.669 583.204 567.221 590.287 560.736C597.455 554.165 606.159 550.88 616.399 550.88C626.639 550.88 635.3 554.421 642.383 561.504L633.935 571.872C628.047 566.752 622.116 564.192 616.143 564.192C610.17 564.192 604.964 566.197 600.527 570.208C596.175 574.133 593.999 579.253 593.999 585.568C593.999 591.797 596.175 597.088 600.527 601.44C604.879 605.792 610.212 607.968 616.527 607.968C622.927 607.968 628.943 605.067 634.575 599.264L643.023 608.48C634.746 616.843 625.188 621.024 614.351 621.024ZM665.829 620H651.493V525.024H665.829V580.832L693.477 551.904H711.909L686.053 578.912L713.829 620H696.421L676.197 590.176L665.829 600.672V620ZM811.169 551.904V611.296C811.169 623.328 807.884 632.331 801.313 638.304C794.828 644.363 786.465 647.392 776.225 647.392C765.985 647.392 756.726 644.192 748.449 637.792L755.233 626.912C761.889 631.947 768.588 634.464 775.329 634.464C782.156 634.464 787.532 632.715 791.457 629.216C795.468 625.717 797.473 620.128 797.473 612.448V603.744C795.34 607.755 792.268 610.955 788.257 613.344C784.332 615.733 779.894 616.928 774.945 616.928C765.9 616.928 758.476 613.771 752.673 607.456C746.87 601.141 743.969 593.291 743.969 583.904C743.969 574.517 746.87 566.667 752.673 560.352C758.476 554.037 765.857 550.88 774.817 550.88C783.862 550.88 791.201 554.592 796.833 562.016V551.904H811.169ZM758.049 583.392C758.049 588.939 759.756 593.76 763.169 597.856C766.668 601.867 771.318 603.872 777.121 603.872C783.009 603.872 787.745 601.909 791.329 597.984C794.998 594.059 796.833 589.195 796.833 583.392C796.833 577.504 794.998 572.555 791.329 568.544C787.66 564.448 782.924 562.4 777.121 562.4C771.318 562.4 766.668 564.491 763.169 568.672C759.756 572.853 758.049 577.76 758.049 583.392ZM873.159 588.768V551.904H887.495V620H873.159V607.584C870.855 611.765 867.655 615.051 863.559 617.44C859.548 619.829 855.196 621.024 850.503 621.024C842.823 621.024 836.594 618.677 831.815 613.984C827.122 609.291 824.775 602.507 824.775 593.632V551.904H839.111V589.28C839.111 601.824 844.316 608.096 854.727 608.096C859.676 608.096 863.986 606.475 867.655 603.232C871.324 599.904 873.159 595.083 873.159 588.768ZM957.061 620H944.005V610.912C938.373 617.653 930.821 621.024 921.349 621.024C914.266 621.024 908.378 619.019 903.685 615.008C899.077 610.997 896.773 605.664 896.773 599.008C896.773 592.267 899.248 587.232 904.197 583.904C909.146 580.576 915.845 578.912 924.293 578.912H942.853V576.352C942.853 567.307 937.818 562.784 927.749 562.784C921.434 562.784 914.864 565.088 908.037 569.696L901.637 560.736C909.914 554.165 919.301 550.88 929.797 550.88C937.818 550.88 944.346 552.928 949.381 557.024C954.501 561.035 957.061 567.392 957.061 576.096V620ZM942.725 594.656V588.896H926.597C916.272 588.896 911.109 592.139 911.109 598.624C911.109 601.952 912.389 604.512 914.949 606.304C917.509 608.011 921.05 608.864 925.573 608.864C930.181 608.864 934.192 607.584 937.605 605.024C941.018 602.464 942.725 599.008 942.725 594.656ZM1006.33 565.344C999.247 565.344 993.914 567.648 990.33 572.256C986.746 576.864 984.954 583.051 984.954 590.816V620H970.618V551.904H984.954V565.6C987.258 561.333 990.373 557.835 994.298 555.104C998.309 552.373 1002.53 550.965 1006.97 550.88L1007.1 565.344C1006.84 565.344 1006.59 565.344 1006.33 565.344ZM1069.64 620H1056.58V610.912C1050.95 617.653 1043.4 621.024 1033.92 621.024C1026.84 621.024 1020.95 619.019 1016.26 615.008C1011.65 610.997 1009.35 605.664 1009.35 599.008C1009.35 592.267 1011.82 587.232 1016.77 583.904C1021.72 580.576 1028.42 578.912 1036.87 578.912H1055.43V576.352C1055.43 567.307 1050.39 562.784 1040.32 562.784C1034.01 562.784 1027.44 565.088 1020.61 569.696L1014.21 560.736C1022.49 554.165 1031.88 550.88 1042.37 550.88C1050.39 550.88 1056.92 552.928 1061.96 557.024C1067.08 561.035 1069.64 567.392 1069.64 576.096V620ZM1055.3 594.656V588.896H1039.17C1028.85 588.896 1023.68 592.139 1023.68 598.624C1023.68 601.952 1024.96 604.512 1027.52 606.304C1030.08 608.011 1033.63 608.864 1038.15 608.864C1042.76 608.864 1046.77 607.584 1050.18 605.024C1053.59 602.464 1055.3 599.008 1055.3 594.656ZM1097.53 583.136V620H1083.19V551.904H1097.53V564.32C1099.83 560.139 1102.99 556.853 1107 554.464C1111.1 552.075 1115.49 550.88 1120.18 550.88C1127.86 550.88 1134.05 553.227 1138.74 557.92C1143.52 562.613 1145.91 569.397 1145.91 578.272V620H1131.58V582.624C1131.58 570.08 1126.37 563.808 1115.96 563.808C1111.01 563.808 1106.7 565.472 1103.03 568.8C1099.36 572.043 1097.53 576.821 1097.53 583.136ZM1176.33 563.424V597.984C1176.33 601.227 1177.19 603.829 1178.89 605.792C1180.6 607.669 1182.99 608.608 1186.06 608.608C1189.13 608.608 1192.08 607.115 1194.89 604.128L1200.78 614.24C1195.75 618.763 1190.16 621.024 1184.01 621.024C1177.95 621.024 1172.75 618.933 1168.4 614.752C1164.13 610.485 1162 604.768 1162 597.6V563.424H1153.42V551.904H1162V530.528H1176.33V551.904H1194.25V563.424H1176.33ZM1269.13 592.224H1215.75C1216.09 597.173 1218.35 601.184 1222.54 604.256C1226.72 607.243 1231.5 608.736 1236.87 608.736C1245.41 608.736 1251.89 606.048 1256.33 600.672L1264.52 609.632C1257.18 617.227 1247.62 621.024 1235.85 621.024C1226.29 621.024 1218.14 617.867 1211.4 611.552C1204.74 605.152 1201.42 596.619 1201.42 585.952C1201.42 575.2 1204.83 566.667 1211.66 560.352C1218.48 554.037 1226.5 550.88 1235.72 550.88C1245.02 550.88 1252.91 553.696 1259.4 559.328C1265.89 564.875 1269.13 572.555 1269.13 582.368V592.224ZM1215.75 580.96H1254.79C1254.79 575.243 1253 570.848 1249.42 567.776C1245.83 564.704 1241.39 563.168 1236.1 563.168C1230.9 563.168 1226.21 564.789 1222.02 568.032C1217.84 571.189 1215.75 575.499 1215.75 580.96ZM1341.85 592.224H1288.48C1288.82 597.173 1291.08 601.184 1295.26 604.256C1299.44 607.243 1304.22 608.736 1309.6 608.736C1318.13 608.736 1324.62 606.048 1329.05 600.672L1337.25 609.632C1329.91 617.227 1320.35 621.024 1308.57 621.024C1299.02 621.024 1290.87 617.867 1284.12 611.552C1277.47 605.152 1274.14 596.619 1274.14 585.952C1274.14 575.2 1277.55 566.667 1284.38 560.352C1291.21 554.037 1299.23 550.88 1308.45 550.88C1317.75 550.88 1325.64 553.696 1332.12 559.328C1338.61 564.875 1341.85 572.555 1341.85 582.368V592.224ZM1288.48 580.96H1327.52C1327.52 575.243 1325.73 570.848 1322.14 567.776C1318.56 564.704 1314.12 563.168 1308.83 563.168C1303.62 563.168 1298.93 564.789 1294.75 568.032C1290.57 571.189 1288.48 575.499 1288.48 580.96ZM1378.99 621.024C1370.38 621.024 1362.87 617.781 1356.47 611.296C1350.07 604.811 1346.87 596.277 1346.87 585.696C1346.87 575.115 1350.15 566.667 1356.72 560.352C1363.29 554.037 1371.1 550.88 1380.15 550.88C1389.28 550.88 1396.62 554.72 1402.16 562.4V525.024H1416.5V620H1402.16V609.76C1396.87 617.269 1389.15 621.024 1378.99 621.024ZM1361.2 586.336C1361.2 592.821 1363.29 598.112 1367.47 602.208C1371.66 606.304 1376.56 608.352 1382.19 608.352C1387.83 608.352 1392.6 606.304 1396.53 602.208C1400.46 598.027 1402.42 592.693 1402.42 586.208C1402.42 579.723 1400.46 574.304 1396.53 569.952C1392.6 565.6 1387.78 563.424 1382.07 563.424C1376.35 563.424 1371.44 565.6 1367.35 569.952C1363.25 574.304 1361.2 579.765 1361.2 586.336ZM1495.38 544.352V620H1480.28V544.352H1453.14V530.528H1522.52V544.352H1495.38ZM1538.02 602.08C1542.11 606.176 1547.27 608.224 1553.5 608.224C1559.73 608.224 1564.85 606.176 1568.86 602.08C1572.96 597.899 1575.01 592.523 1575.01 585.952C1575.01 579.381 1572.96 574.048 1568.86 569.952C1564.85 565.771 1559.73 563.68 1553.5 563.68C1547.27 563.68 1542.11 565.771 1538.02 569.952C1534 574.048 1532 579.381 1532 585.952C1532 592.523 1534 597.899 1538.02 602.08ZM1579.1 610.912C1572.28 617.653 1563.74 621.024 1553.5 621.024C1543.26 621.024 1534.73 617.653 1527.9 610.912C1521.08 604.085 1517.66 595.765 1517.66 585.952C1517.66 576.139 1521.08 567.861 1527.9 561.12C1534.73 554.293 1543.26 550.88 1553.5 550.88C1563.74 550.88 1572.28 554.293 1579.1 561.12C1585.93 567.861 1589.34 576.139 1589.34 585.952C1589.34 595.765 1585.93 604.085 1579.1 610.912ZM1635.72 550.88C1644.85 550.88 1652.66 554.037 1659.15 560.352C1665.63 566.667 1668.88 575.072 1668.88 585.568C1668.88 596.064 1665.63 604.597 1659.15 611.168C1652.75 617.739 1645.24 621.024 1636.62 621.024C1628.09 621.024 1620.41 617.269 1613.58 609.76V644.832H1599.24V551.904H1613.58V563.808C1619.21 555.189 1626.59 550.88 1635.72 550.88ZM1613.32 586.08C1613.32 592.565 1615.29 597.899 1619.21 602.08C1623.14 606.176 1627.92 608.224 1633.55 608.224C1639.18 608.224 1644.09 606.176 1648.27 602.08C1652.45 597.984 1654.54 592.693 1654.54 586.208C1654.54 579.637 1652.49 574.219 1648.4 569.952C1644.3 565.6 1639.39 563.424 1633.68 563.424C1627.96 563.424 1623.14 565.6 1619.21 569.952C1615.29 574.219 1613.32 579.595 1613.32 586.08Z" fill="#F8F8F8"/>
</svg>
